<svg 
 xmlns="http://www.w3.org/2000/svg"
 xmlns:xlink="http://www.w3.org/1999/xlink"
 width="64px" height="64px">
<path fill-rule="evenodd"
 d="M32.000,-0.000 C49.673,-0.000 64.000,14.327 64.000,32.000 C64.000,49.673 49.673,64.000 32.000,64.000 C14.327,64.000 -0.000,49.673 -0.000,32.000 C-0.000,14.327 14.327,-0.000 32.000,-0.000 Z"/>
<path fill-rule="evenodd"  fill="rgb(255, 255, 255)"
 d="M38.006,47.015 L38.006,31.999 L42.476,27.739 L47.015,31.999 L47.015,47.015 L38.006,47.015 ZM42.567,23.583 L31.969,33.500 L23.424,28.459 L16.992,33.815 L16.992,29.479 L23.089,24.333 L31.513,29.299 L40.195,21.167 L37.717,18.632 L47.007,16.996 L45.000,26.088 L42.567,23.583 ZM25.765,33.740 L25.993,47.015 L16.984,47.015 L16.984,36.504 L23.302,32.149 L25.765,33.740 ZM36.504,33.501 L36.504,47.015 L27.495,47.015 L27.495,35.003 L32.152,37.386 L36.504,33.501 Z"/>
</svg>
