<svg 
 xmlns="http://www.w3.org/2000/svg"
 xmlns:xlink="http://www.w3.org/1999/xlink"
 width="64px" height="64px">
<path fill-rule="evenodd"
 d="M32.000,-0.000 C49.673,-0.000 64.000,14.327 64.000,32.000 C64.000,49.673 49.673,64.000 32.000,64.000 C14.327,64.000 -0.000,49.673 -0.000,32.000 C-0.000,14.327 14.327,-0.000 32.000,-0.000 Z"/>
<path fill-rule="evenodd"  fill="rgb(255, 255, 255)"
 d="M47.630,31.398 L48.992,35.041 L45.879,35.041 L45.879,43.851 L48.225,43.851 L48.225,46.916 L16.084,46.916 L16.084,43.851 L44.346,43.851 L44.346,35.041 L41.233,35.041 L42.601,31.398 L41.233,31.398 L42.601,27.760 L41.233,27.760 L45.113,17.414 L48.992,27.760 L47.630,27.760 L48.992,31.398 L47.630,31.398 ZM40.175,30.647 L38.378,30.647 L38.378,42.900 L17.744,42.900 L17.744,30.647 L15.947,30.647 C15.352,30.647 15.049,29.925 15.466,29.501 L27.500,17.237 C27.647,17.086 27.850,17.001 28.061,17.001 C28.272,17.001 28.474,17.086 28.622,17.237 L40.655,29.501 C41.073,29.931 40.770,30.647 40.175,30.647 ZM25.978,30.647 L21.835,30.647 L21.835,34.794 L25.978,34.794 L25.978,30.647 ZM25.978,36.072 L21.835,36.072 L21.835,40.219 L25.978,40.219 L25.978,36.072 ZM32.827,30.647 L28.684,30.647 L28.684,34.794 L32.827,34.794 L32.827,30.647 ZM32.827,36.072 L28.684,36.072 L28.684,40.219 L32.827,40.219 L32.827,36.072 Z"/>
</svg>
