<svg 
 xmlns="http://www.w3.org/2000/svg"
 xmlns:xlink="http://www.w3.org/1999/xlink"
 width="64px" height="64px">
<path fill-rule="evenodd"
 d="M32.000,-0.000 C49.673,-0.000 64.000,14.327 64.000,32.000 C64.000,49.673 49.673,64.000 32.000,64.000 C14.327,64.000 -0.000,49.673 -0.000,32.000 C-0.000,14.327 14.327,-0.000 32.000,-0.000 Z"/>
<path fill-rule="evenodd"  fill="rgb(255, 255, 255)"
 d="M41.061,19.844 C42.117,19.768 43.154,19.863 44.173,20.130 C45.191,20.397 46.096,20.727 46.888,21.121 C47.680,21.514 48.322,21.933 48.812,22.378 C49.302,22.823 49.547,23.197 49.547,23.502 C49.547,23.807 49.359,23.991 48.982,24.054 C48.604,24.118 48.133,24.175 47.567,24.226 C47.002,24.277 46.379,24.372 45.700,24.512 C45.021,24.651 44.380,24.963 43.777,25.445 C43.375,25.750 42.991,26.086 42.626,26.455 C42.262,26.823 41.897,27.179 41.533,27.521 C41.168,27.864 40.791,28.182 40.401,28.474 C40.012,28.766 39.590,28.988 39.138,29.141 C38.911,29.217 38.635,29.293 38.308,29.370 C37.981,29.446 37.635,29.465 37.271,29.427 C36.906,29.388 36.529,29.268 36.139,29.065 C35.750,28.861 35.379,28.519 35.027,28.036 C34.800,28.341 34.606,28.703 34.442,29.122 C34.279,29.541 34.134,29.992 34.008,30.474 C33.883,30.957 33.776,31.459 33.688,31.979 C33.600,32.500 33.531,32.989 33.480,33.446 C33.430,33.827 33.393,34.303 33.367,34.875 C33.342,35.446 33.336,36.012 33.348,36.570 C33.361,37.129 33.393,37.644 33.443,38.113 C33.493,38.583 33.569,38.920 33.669,39.123 C33.795,39.352 33.858,39.542 33.858,39.695 C33.858,39.822 33.795,39.942 33.669,40.057 C33.543,40.171 33.305,40.228 32.952,40.228 C32.550,40.228 32.280,40.171 32.142,40.057 C32.003,39.942 31.934,39.822 31.934,39.695 C31.909,39.542 31.959,39.364 32.085,39.161 C32.211,38.907 32.292,38.609 32.330,38.266 C32.368,37.923 32.381,37.555 32.368,37.161 C32.355,36.767 32.336,36.367 32.311,35.961 C32.286,35.554 32.274,35.161 32.274,34.780 C31.871,33.967 31.482,33.281 31.104,32.722 C30.727,32.163 30.312,31.630 29.860,31.122 C29.583,31.732 29.263,32.189 28.898,32.494 C28.534,32.798 28.163,33.008 27.785,33.122 C27.408,33.237 27.050,33.287 26.711,33.275 C26.371,33.262 26.076,33.230 25.824,33.179 C25.372,33.103 24.944,32.957 24.542,32.741 C24.140,32.525 23.737,32.284 23.335,32.017 C22.933,31.751 22.524,31.465 22.109,31.160 C21.694,30.855 21.273,30.589 20.846,30.360 C20.192,29.979 19.519,29.776 18.828,29.750 C18.136,29.725 17.508,29.744 16.942,29.808 C16.376,29.871 15.911,29.897 15.547,29.884 C15.182,29.871 15.000,29.700 15.000,29.370 C15.000,29.039 15.207,28.620 15.622,28.112 C16.037,27.604 16.590,27.103 17.282,26.607 C17.973,26.112 18.784,25.667 19.714,25.274 C20.645,24.880 21.625,24.632 22.656,24.531 C24.240,24.378 25.554,24.461 26.597,24.778 C27.641,25.096 28.458,25.547 29.049,26.131 C29.640,26.715 30.011,27.388 30.162,28.150 C30.312,28.912 30.287,29.674 30.086,30.436 C30.891,31.173 31.683,32.113 32.462,33.256 C32.588,32.011 32.902,30.754 33.405,29.484 C33.606,29.052 33.795,28.684 33.971,28.379 C34.147,28.074 34.361,27.744 34.612,27.388 C34.210,26.652 34.002,25.864 33.990,25.026 C33.977,24.188 34.216,23.400 34.706,22.664 C35.196,21.927 35.957,21.299 36.988,20.778 C38.019,20.257 39.377,19.946 41.061,19.844 L41.061,19.844 ZM29.822,30.322 C28.414,29.103 26.931,28.315 25.372,27.960 C23.813,27.604 22.204,27.642 20.544,28.074 C20.494,28.074 20.481,28.080 20.506,28.093 C20.531,28.106 20.569,28.112 20.619,28.112 C21.349,28.036 22.090,28.004 22.845,28.017 C23.599,28.030 24.359,28.144 25.127,28.360 C25.893,28.576 26.654,28.893 27.408,29.312 C28.163,29.731 28.904,30.297 29.633,31.008 L29.822,30.322 ZM43.664,23.083 C43.714,23.083 43.752,23.077 43.777,23.064 C43.802,23.051 43.777,23.045 43.701,23.045 C41.866,22.867 40.207,23.153 38.723,23.902 C37.239,24.651 35.932,25.750 34.800,27.198 L35.178,27.845 C35.857,26.906 36.554,26.131 37.271,25.521 C37.987,24.912 38.717,24.429 39.458,24.073 C40.200,23.718 40.923,23.470 41.627,23.331 C42.331,23.191 43.010,23.108 43.664,23.083 L43.664,23.083 ZM23.976,42.552 C23.775,42.374 23.838,42.165 24.165,41.924 C24.492,41.682 24.969,41.434 25.598,41.180 C26.226,40.926 26.937,40.666 27.729,40.399 C28.521,40.133 29.281,39.898 30.011,39.695 C30.338,39.593 30.595,39.599 30.784,39.714 C30.972,39.828 31.148,39.974 31.312,40.152 C31.475,40.330 31.676,40.501 31.915,40.666 C32.154,40.831 32.500,40.914 32.952,40.914 C33.405,40.914 33.751,40.831 33.990,40.666 C34.229,40.501 34.436,40.336 34.612,40.171 C34.788,40.006 34.964,39.866 35.140,39.752 C35.316,39.637 35.567,39.618 35.894,39.695 C36.624,39.898 37.390,40.139 38.195,40.419 C39.000,40.698 39.722,40.971 40.363,41.238 C41.005,41.504 41.489,41.758 41.816,42.000 C42.143,42.241 42.180,42.425 41.929,42.552 C41.325,42.882 40.514,43.155 39.496,43.371 C38.478,43.587 37.372,43.746 36.177,43.847 C34.983,43.949 33.751,44.000 32.481,44.000 C31.211,44.000 30.011,43.943 28.879,43.829 C27.748,43.714 26.742,43.549 25.862,43.333 C24.982,43.117 24.353,42.857 23.976,42.552 L23.976,42.552 Z"/>
</svg>
