<svg 
 xmlns="http://www.w3.org/2000/svg"
 xmlns:xlink="http://www.w3.org/1999/xlink"
 width="64px" height="64px">
<path fill-rule="evenodd"
 d="M32.000,-0.000 C49.673,-0.000 64.000,14.327 64.000,32.000 C64.000,49.673 49.673,64.000 32.000,64.000 C14.327,64.000 -0.000,49.673 -0.000,32.000 C-0.000,14.327 14.327,-0.000 32.000,-0.000 Z"/>
<path fill-rule="evenodd"  fill="rgb(255, 255, 255)"
 d="M35.506,31.972 L44.880,31.972 C45.270,31.972 45.567,31.624 45.507,31.239 L43.739,19.979 C43.691,19.671 43.620,20.359 43.308,20.359 L34.994,20.359 C34.615,20.359 33.546,19.773 33.589,20.150 L34.876,31.410 C34.913,31.730 35.184,31.972 35.506,31.972 L35.506,31.972 ZM36.656,43.640 L46.634,43.640 C47.023,43.640 47.542,44.208 47.482,43.824 L45.953,34.085 C45.905,33.776 45.639,33.549 45.327,33.549 L35.832,33.549 C35.453,33.549 35.158,33.879 35.201,34.255 L36.314,43.994 C36.351,44.314 36.622,44.556 36.944,44.556 L36.656,43.640 ZM31.668,20.359 L21.690,20.359 C21.378,20.359 21.308,19.671 21.259,19.979 L17.516,43.824 C17.456,44.208 17.975,43.640 18.364,43.640 L33.331,43.640 C33.709,43.640 33.374,44.016 33.331,43.640 L31.996,20.005 C31.959,19.685 31.688,19.443 31.366,19.443 L31.668,20.359 Z"/>
</svg>
