<svg 
 xmlns="http://www.w3.org/2000/svg"
 xmlns:xlink="http://www.w3.org/1999/xlink"
 width="64px" height="64px">
<path fill-rule="evenodd"
 d="M32.000,-0.000 C49.673,-0.000 64.000,14.327 64.000,32.000 C64.000,49.673 49.673,64.000 32.000,64.000 C14.327,64.000 -0.000,49.673 -0.000,32.000 C-0.000,14.327 14.327,-0.000 32.000,-0.000 Z"/>
<path fill-rule="evenodd"  fill="rgb(255, 255, 255)"
 d="M42.918,42.919 L42.918,35.639 L46.558,35.639 L44.131,29.573 L45.341,29.573 L41.706,19.867 L39.279,28.360 L40.492,28.360 L37.570,34.201 L35.638,28.359 L36.848,29.573 L31.999,15.013 L28.355,27.146 L29.568,27.146 L27.141,34.426 L24.732,29.350 L25.936,29.576 L22.293,19.867 L19.862,28.359 L21.079,28.359 L17.440,35.639 L21.079,35.639 L21.079,41.710 C21.079,41.710 16.294,43.815 15.013,45.350 C17.037,44.426 19.143,44.636 22.293,44.137 C21.457,44.486 20.645,44.890 19.862,45.346 C18.539,46.526 16.227,48.986 16.227,48.986 L30.786,48.986 C30.786,48.986 25.795,46.687 25.933,45.346 C26.015,44.553 27.592,43.496 28.360,42.919 C29.109,42.880 30.011,42.933 30.786,42.919 L30.786,45.346 L33.213,45.346 L33.213,42.919 C39.321,43.123 45.587,43.795 48.986,45.346 C47.853,43.996 42.918,42.919 42.918,42.919 L42.918,42.919 ZM30.786,40.493 C28.332,40.708 25.897,41.115 23.506,41.710 L23.506,35.639 L25.933,35.639 L24.720,36.853 L30.786,36.853 L30.786,40.493 ZM40.492,41.710 C38.104,41.101 35.669,40.696 33.213,40.497 L33.213,36.853 L39.279,36.853 L38.066,35.639 L40.493,35.639 L40.493,41.710 L40.492,41.710 Z"/>
</svg>
