<svg 
 xmlns="http://www.w3.org/2000/svg"
 xmlns:xlink="http://www.w3.org/1999/xlink"
 width="64px" height="64px">
<path fill-rule="evenodd"
 d="M32.000,-0.000 C49.673,-0.000 64.000,14.327 64.000,32.000 C64.000,49.673 49.673,64.000 32.000,64.000 C14.327,64.000 -0.000,49.673 -0.000,32.000 C-0.000,14.327 14.327,-0.000 32.000,-0.000 Z"/>
<path fill-rule="evenodd"  fill="rgb(255, 255, 255)"
 d="M41.016,24.463 C41.016,26.212 41.539,26.995 43.164,28.235 L43.516,28.504 C45.537,30.043 46.388,31.221 46.388,33.437 C46.388,35.766 45.509,36.963 43.259,38.765 L43.188,38.819 C41.488,40.182 41.016,40.831 41.016,42.191 C41.016,43.472 41.564,44.869 42.682,46.370 L42.694,46.388 L39.425,46.388 C39.422,46.382 39.419,46.377 39.416,46.371 C38.650,44.965 38.262,43.574 38.262,42.191 C38.262,39.765 39.168,38.522 41.462,36.684 L41.533,36.630 C43.186,35.305 43.635,34.695 43.635,33.437 C43.635,32.286 43.249,31.751 41.843,30.680 L41.487,30.408 C39.253,28.701 38.262,27.225 38.262,24.463 C38.262,22.133 39.308,19.858 41.366,17.616 L41.370,17.611 L45.370,17.611 C45.368,17.612 45.367,17.614 45.365,17.615 C42.439,20.035 41.016,22.333 41.016,24.463 ZM33.872,41.522 L29.977,37.647 L37.766,29.894 L41.661,33.770 L33.872,41.522 ZM26.457,30.341 L33.272,23.558 L37.167,27.433 L30.352,34.217 L26.457,30.341 ZM22.598,23.161 L28.175,17.611 L35.963,17.611 L26.495,27.036 L22.598,23.161 ZM20.362,24.463 C20.362,26.212 20.886,26.995 22.510,28.235 L22.863,28.504 C24.884,30.043 25.735,31.221 25.735,33.437 C25.735,35.766 24.855,36.963 22.605,38.765 L22.535,38.819 C20.835,40.183 20.362,40.832 20.362,42.192 C20.362,43.473 20.910,44.871 22.028,46.371 L22.040,46.388 L18.772,46.388 C18.769,46.382 18.766,46.377 18.762,46.371 C17.997,44.965 17.609,43.574 17.609,42.191 C17.609,39.765 18.515,38.522 20.808,36.684 L20.880,36.630 C22.532,35.305 22.981,34.695 22.981,33.437 C22.981,32.286 22.596,31.751 21.190,30.680 L20.833,30.408 C18.600,28.701 17.609,27.225 17.609,24.463 C17.609,22.133 18.655,19.858 20.712,17.616 L20.716,17.611 L24.716,17.611 C24.715,17.612 24.713,17.614 24.712,17.615 C21.786,20.035 20.362,22.333 20.362,24.463 ZM22.041,46.389 L22.040,46.388 L22.041,46.388 L22.041,46.389 ZM26.773,37.392 L26.773,37.393 L30.668,41.268 L25.800,46.114 L21.906,42.236 L26.773,37.392 ZM36.743,46.388 L30.637,46.388 L33.691,43.350 L36.743,46.388 Z"/>
</svg>
