<svg 
 xmlns="http://www.w3.org/2000/svg"
 xmlns:xlink="http://www.w3.org/1999/xlink"
 width="64px" height="64px">
<path fill-rule="evenodd"  fill="rgb(69, 150, 222)"
 d="M32.000,-0.000 C49.673,-0.000 64.000,14.327 64.000,32.000 C64.000,49.673 49.673,64.000 32.000,64.000 C14.327,64.000 -0.000,49.673 -0.000,32.000 C-0.000,14.327 14.327,-0.000 32.000,-0.000 Z"/>
<path fill-rule="evenodd"  fill="rgb(255, 255, 255)"
 d="M37.747,42.540 L36.168,42.540 L36.168,37.803 C38.875,38.474 44.858,37.156 46.998,35.655 L46.998,39.516 C46.998,41.230 42.925,42.517 37.747,42.540 ZM45.884,22.028 C44.330,23.197 41.409,24.121 37.786,24.121 C32.639,24.121 29.000,22.368 28.361,20.654 C28.361,18.515 32.639,17.015 37.825,16.983 C40.904,16.983 43.730,17.599 45.419,18.562 C46.398,19.138 46.998,19.865 46.998,20.654 C46.765,21.209 46.379,21.686 45.884,22.028 ZM35.426,30.302 C34.786,32.016 31.140,33.729 26.214,33.729 C21.288,33.729 17.642,32.229 17.002,30.302 C17.002,28.376 21.288,26.876 26.214,26.655 C31.360,26.655 35.426,28.376 35.426,30.302 ZM35.426,33.303 L35.426,37.156 C34.786,38.869 31.140,40.590 26.214,40.590 C21.288,40.590 17.642,38.869 17.002,37.156 L17.002,33.303 C19.141,34.803 22.141,35.671 26.214,35.671 C30.287,35.671 33.500,34.803 35.426,33.303 ZM35.426,40.164 L35.426,44.017 C35.426,45.730 31.140,47.017 26.214,47.017 C21.288,47.017 17.002,45.730 17.002,44.017 L17.002,40.164 C18.928,41.664 22.354,42.517 26.214,42.532 C29.447,42.634 32.642,41.812 35.426,40.164 ZM28.361,23.228 C31.233,24.849 34.489,25.667 37.786,25.597 C40.949,25.675 44.069,24.853 46.784,23.228 L46.784,26.876 C46.145,28.589 42.498,30.302 37.565,30.302 L36.712,30.334 C36.499,27.531 32.639,26.031 28.361,25.597 L28.361,23.228 ZM41.788,31.455 C43.634,31.157 45.396,30.471 46.958,29.442 L46.958,33.113 C46.311,34.826 42.672,36.540 37.747,36.540 L36.168,36.540 L36.168,31.803 C37.139,32.189 40.588,31.684 41.788,31.455 Z"/>
</svg>
