<svg 
 xmlns="http://www.w3.org/2000/svg"
 xmlns:xlink="http://www.w3.org/1999/xlink"
 width="64px" height="64px">
<path fill-rule="evenodd"  fill="rgb(69, 150, 222)"
 d="M32.000,-0.000 C49.673,-0.000 64.000,14.327 64.000,32.000 C64.000,49.673 49.673,64.000 32.000,64.000 C14.327,64.000 -0.000,49.673 -0.000,32.000 C-0.000,14.327 14.327,-0.000 32.000,-0.000 Z"/>
<path fill-rule="evenodd"  fill="rgb(255, 255, 255)"
 d="M46.804,33.866 C45.790,38.935 43.043,42.848 38.859,45.188 C36.831,46.323 34.047,46.937 31.390,46.973 C31.117,46.984 30.898,46.936 30.638,46.932 C30.257,46.924 29.896,46.903 29.543,46.871 C29.361,46.850 29.141,46.869 28.970,46.839 C28.884,46.827 28.800,46.816 28.716,46.803 C28.692,46.798 28.664,46.797 28.641,46.792 C28.608,46.785 28.571,46.774 28.538,46.767 C28.174,46.705 27.811,46.641 27.470,46.551 C27.403,46.535 27.320,46.530 27.255,46.513 C27.150,46.485 27.060,46.453 26.958,46.424 C26.951,46.422 26.942,46.421 26.935,46.418 C26.925,46.415 26.918,46.412 26.908,46.409 C26.183,46.202 25.555,45.970 25.033,45.722 C23.356,45.002 22.912,44.362 23.464,43.608 C23.481,43.585 23.482,43.560 23.501,43.537 C23.507,43.531 23.513,43.530 23.518,43.524 C23.526,43.515 23.528,43.506 23.535,43.497 C23.568,43.459 23.620,43.447 23.657,43.414 C23.678,43.394 23.703,43.382 23.726,43.366 C23.791,43.298 23.867,43.248 23.954,43.210 C23.971,43.196 23.986,43.182 24.005,43.175 C24.050,43.158 24.107,43.157 24.159,43.150 C24.175,43.147 24.191,43.144 24.208,43.143 C24.241,43.138 24.277,43.138 24.308,43.132 C24.383,43.122 24.455,43.103 24.542,43.107 C24.559,43.108 24.570,43.101 24.588,43.102 C25.142,43.109 25.860,43.304 26.818,43.732 C27.746,44.146 29.129,44.367 30.591,44.417 C30.814,44.419 31.030,44.421 31.284,44.421 C31.464,44.421 31.603,44.420 31.766,44.419 C33.246,44.374 34.715,44.159 35.808,43.754 C35.892,43.723 35.972,43.684 36.055,43.652 C38.581,42.634 40.654,40.980 42.116,38.824 C42.136,38.796 42.156,38.770 42.175,38.742 C42.663,38.011 43.084,37.226 43.427,36.388 C43.508,36.191 43.572,35.966 43.639,35.745 C43.685,35.599 43.726,35.450 43.767,35.301 C44.010,34.318 44.139,33.174 44.148,32.010 C44.148,31.949 44.149,31.903 44.149,31.840 C44.149,31.773 44.148,31.723 44.148,31.658 C44.130,30.216 43.925,28.794 43.549,27.651 C43.479,27.445 43.408,27.240 43.328,27.039 C42.999,26.257 42.588,25.513 42.103,24.814 C42.083,24.784 42.069,24.749 42.048,24.719 C41.522,23.975 40.909,23.289 40.229,22.664 C40.183,22.622 40.133,22.585 40.087,22.543 C39.443,21.969 38.738,21.455 37.983,21.007 C37.909,20.963 37.836,20.916 37.760,20.874 C36.951,20.413 36.093,20.020 35.186,19.725 C34.816,19.605 34.515,19.491 34.243,19.378 C34.000,19.348 33.791,19.240 33.617,19.075 C32.897,18.650 32.802,18.206 33.170,17.534 C34.020,15.982 39.104,17.993 42.296,21.143 C44.590,23.408 45.966,25.978 46.693,29.359 C47.153,31.500 47.167,32.051 46.804,33.866 ZM29.191,29.675 C29.174,29.679 29.157,29.686 29.140,29.690 C29.139,29.690 29.138,29.690 29.138,29.690 C29.011,29.719 28.879,29.723 28.751,29.743 C28.623,29.760 28.497,29.784 28.366,29.796 C28.335,29.800 28.303,29.795 28.272,29.797 C27.856,29.876 27.529,29.882 27.136,29.811 C27.010,29.812 26.886,29.832 26.761,29.816 C26.475,29.796 26.239,29.734 25.982,29.681 C25.919,29.666 25.857,29.655 25.796,29.637 C25.577,29.583 25.322,29.562 25.138,29.480 C24.950,29.397 24.795,29.278 24.619,29.182 C24.619,29.182 24.619,29.182 24.619,29.182 C24.619,29.182 24.618,29.182 24.618,29.182 C24.230,28.970 23.868,28.737 23.539,28.470 C23.289,28.273 23.052,28.064 22.832,27.835 C22.763,27.761 22.700,27.683 22.634,27.606 C21.349,26.150 20.671,24.216 21.009,22.489 C21.109,21.984 21.332,21.480 21.595,20.982 C21.632,20.902 21.686,20.826 21.728,20.746 C21.831,20.567 21.917,20.383 22.032,20.208 C22.063,20.160 22.077,20.107 22.110,20.059 C22.122,20.042 22.144,20.026 22.157,20.008 C22.338,19.751 22.564,19.540 22.770,19.306 C22.789,19.285 22.797,19.257 22.816,19.236 C22.831,19.221 22.851,19.212 22.865,19.197 C23.423,18.586 24.028,18.042 24.689,17.736 C25.305,17.451 25.918,17.300 26.526,17.200 C26.843,17.126 27.156,17.087 27.466,17.070 C27.555,17.055 27.648,17.027 27.731,17.027 C27.791,17.027 27.860,17.055 27.921,17.057 C27.949,17.058 27.974,17.069 28.002,17.070 C28.348,17.090 28.697,17.144 29.050,17.233 C30.392,17.504 31.558,18.189 32.481,19.102 C32.531,19.151 32.598,19.185 32.646,19.236 C32.667,19.258 32.684,19.294 32.705,19.317 C33.122,19.770 33.497,20.259 33.773,20.811 C33.815,20.891 33.855,20.970 33.891,21.051 C34.625,22.688 34.704,24.624 33.667,26.535 C32.758,28.210 31.056,29.281 29.191,29.675 ZM30.060,31.260 C30.569,31.338 31.015,31.460 31.482,31.567 C31.514,31.573 31.543,31.581 31.575,31.587 C34.164,32.197 36.129,33.231 37.267,34.627 C37.587,34.982 37.783,35.376 37.970,35.775 C37.986,35.803 38.007,35.831 38.022,35.859 C38.099,36.033 38.163,36.219 38.217,36.404 C38.255,36.508 38.239,36.609 38.267,36.712 C38.273,36.736 38.273,36.760 38.279,36.784 C38.321,36.954 38.348,37.122 38.362,37.291 C38.364,37.309 38.370,37.328 38.372,37.347 C38.384,37.488 38.448,37.632 38.442,37.773 C38.442,37.795 38.452,37.812 38.452,37.834 C38.452,37.841 38.449,37.847 38.449,37.853 C38.449,37.862 38.452,37.870 38.452,37.878 C38.452,37.898 38.446,37.916 38.440,37.934 C38.418,38.162 38.367,38.384 38.294,38.605 C38.262,38.736 38.259,38.876 38.209,39.001 C38.142,39.174 38.040,39.334 37.943,39.498 C37.852,39.644 37.755,39.788 37.639,39.925 C36.937,40.803 35.827,41.536 34.284,41.991 C33.429,42.244 32.153,42.423 30.747,42.541 C30.402,42.579 30.039,42.594 29.681,42.618 C29.267,42.642 28.854,42.654 28.433,42.666 C28.010,42.675 27.608,42.706 27.172,42.696 C27.170,42.696 27.168,42.696 27.166,42.696 C27.042,42.696 26.918,42.699 26.796,42.698 C25.780,42.702 24.921,42.681 24.619,42.630 C24.527,42.614 24.452,42.595 24.362,42.579 C23.728,42.522 23.136,42.452 22.671,42.351 C18.820,41.510 17.105,40.168 17.026,37.955 C17.025,37.913 17.011,37.877 17.011,37.834 C17.011,37.828 17.012,37.822 17.012,37.815 C17.012,37.810 17.011,37.806 17.011,37.801 C17.011,37.793 17.015,37.786 17.015,37.779 C17.015,37.749 17.023,37.725 17.024,37.696 C17.013,37.333 17.047,36.973 17.146,36.618 C17.400,35.520 18.035,34.616 19.132,33.793 C21.551,31.733 25.729,30.599 30.060,31.260 Z"/>
</svg>
