<svg 
 xmlns="http://www.w3.org/2000/svg"
 xmlns:xlink="http://www.w3.org/1999/xlink"
 width="64px" height="64px">
<path fill-rule="evenodd"  fill="rgb(69, 150, 222)"
 d="M32.000,-0.000 C49.673,-0.000 64.000,14.327 64.000,32.000 C64.000,49.673 49.673,64.000 32.000,64.000 C14.327,64.000 -0.000,49.673 -0.000,32.000 C-0.000,14.327 14.327,-0.000 32.000,-0.000 Z"/>
<path fill-rule="evenodd"  fill="rgb(255, 255, 255)"
 d="M31.511,51.997 C19.905,44.681 13.717,30.478 15.245,18.505 C20.138,18.469 25.490,16.585 31.511,12.000 C37.531,16.585 42.883,18.469 47.777,18.505 C49.304,30.478 43.117,44.681 31.511,51.997 ZM44.997,20.811 C40.939,20.781 36.502,19.220 31.511,15.418 C26.519,19.220 22.082,20.781 18.024,20.811 C16.758,30.738 21.888,42.514 31.511,48.580 C41.133,42.514 46.263,30.738 44.997,20.811 ZM36.962,40.376 C35.625,40.397 34.288,40.418 32.951,40.438 C33.315,40.730 33.680,41.021 34.044,41.313 C34.035,41.426 34.194,41.710 34.185,41.824 C34.176,41.937 33.956,41.917 33.947,42.031 C33.907,42.040 33.952,42.036 33.776,42.036 C33.621,42.036 33.539,41.994 33.398,41.994 C32.779,41.483 32.160,40.972 31.542,40.461 C31.531,40.461 31.521,40.461 31.511,40.461 C31.500,40.461 31.490,40.461 31.479,40.461 C30.861,40.972 30.242,41.483 29.624,41.994 C29.482,41.994 29.400,42.036 29.245,42.036 C29.069,42.036 29.114,42.040 29.074,42.031 C29.065,41.917 28.846,41.937 28.836,41.824 C28.827,41.710 28.986,41.426 28.977,41.313 C29.341,41.021 29.706,40.730 30.070,40.438 C28.733,40.418 27.396,40.397 26.059,40.376 C25.665,39.383 24.822,38.730 23.528,38.418 C23.181,38.228 23.594,37.642 23.528,37.311 C22.748,37.325 20.728,34.865 21.813,33.762 C21.021,32.963 20.371,32.102 19.929,31.151 C20.101,30.631 20.024,30.725 20.576,30.725 C21.090,31.562 21.652,32.422 22.216,32.703 C22.916,32.044 22.803,31.504 21.954,31.350 C21.307,31.163 20.835,30.624 20.688,29.732 C20.473,29.013 20.398,28.445 20.632,27.726 C21.081,27.432 21.319,27.623 21.476,28.199 C21.385,29.093 21.532,29.717 21.841,30.157 C23.187,28.461 23.050,27.783 21.897,27.801 C21.480,27.466 21.287,26.945 21.419,26.155 C21.482,25.436 21.588,24.793 21.701,24.074 C21.944,23.676 22.675,23.600 22.881,23.941 C22.912,23.326 23.176,22.711 23.556,22.096 C24.106,21.878 24.410,21.789 24.569,22.550 C24.362,23.052 24.156,23.553 23.950,24.055 C24.081,24.092 24.212,24.130 24.344,24.168 C24.597,23.648 24.850,23.127 25.103,22.607 C26.021,21.675 26.931,21.041 28.449,21.017 C28.754,21.039 28.735,21.121 28.791,21.216 C28.847,21.311 28.812,21.521 28.646,21.570 C27.173,22.095 26.052,22.665 26.031,23.544 C26.270,24.109 25.885,24.539 25.075,24.878 C24.953,24.934 24.831,24.991 24.709,25.048 C24.859,25.114 25.009,25.181 25.159,25.247 C25.445,25.833 24.648,26.524 23.360,27.262 C23.978,27.844 24.175,28.450 23.444,29.107 C22.725,29.751 22.897,30.394 22.797,31.037 C23.060,30.829 23.322,30.621 23.584,30.413 C23.654,30.475 23.859,30.401 23.928,30.463 C24.018,30.543 23.973,30.759 24.062,30.839 C23.781,31.170 23.500,31.501 23.219,31.832 C23.284,32.031 23.350,32.230 23.416,32.428 C23.191,33.128 23.341,33.488 23.866,33.507 C24.264,33.606 24.517,34.675 24.344,35.948 C26.202,35.490 25.803,37.059 26.902,37.765 C26.893,37.954 26.884,38.143 26.874,38.332 C26.706,38.399 26.495,38.635 26.326,38.701 C25.356,36.809 25.070,36.781 24.315,36.970 C24.222,37.102 24.128,37.235 24.034,37.367 C25.431,38.011 26.316,38.654 26.452,39.298 C27.526,39.624 29.078,39.675 30.783,39.638 C30.885,39.633 30.988,39.628 31.091,39.622 C31.108,39.609 31.125,39.595 31.142,39.581 C31.265,39.588 31.388,39.594 31.511,39.600 C31.633,39.594 31.756,39.588 31.879,39.581 C31.896,39.595 31.913,39.609 31.930,39.622 C32.033,39.628 32.136,39.633 32.239,39.638 C33.943,39.675 35.495,39.624 36.569,39.298 C36.705,38.654 37.590,38.011 38.987,37.367 C38.893,37.235 38.799,37.102 38.706,36.970 C37.951,36.781 37.665,36.809 36.695,38.701 C36.527,38.635 36.316,38.399 36.147,38.332 C36.138,38.143 36.128,37.954 36.119,37.765 C37.218,37.059 36.820,35.490 38.678,35.948 C38.504,34.675 38.757,33.606 39.156,33.507 C39.680,33.488 39.830,33.128 39.606,32.428 C39.671,32.230 39.737,32.031 39.802,31.832 C39.521,31.501 39.240,31.170 38.959,30.839 C39.048,30.759 39.003,30.543 39.093,30.463 C39.162,30.401 39.367,30.475 39.437,30.413 C39.699,30.621 39.962,30.829 40.224,31.037 C40.125,30.394 40.296,29.751 39.577,29.107 C38.846,28.450 39.043,27.844 39.662,27.262 C38.373,26.524 37.576,25.833 37.862,25.247 C38.012,25.181 38.162,25.114 38.312,25.048 C38.190,24.991 38.068,24.934 37.947,24.878 C37.136,24.539 36.752,24.109 36.991,23.544 C36.969,22.665 35.848,22.095 34.376,21.570 C34.209,21.521 34.174,21.311 34.230,21.216 C34.286,21.121 34.267,21.039 34.572,21.017 C36.091,21.041 37.000,21.675 37.918,22.607 C38.171,23.127 38.424,23.648 38.678,24.168 C38.809,24.130 38.940,24.092 39.071,24.055 C38.865,23.553 38.659,23.052 38.453,22.550 C38.611,21.789 38.971,21.963 39.465,22.096 C39.846,22.711 40.109,23.326 40.140,23.941 C40.346,23.600 41.077,23.676 41.321,24.074 C41.433,24.793 41.540,25.436 41.602,26.155 C41.735,26.945 41.541,27.466 41.124,27.801 C39.971,27.783 39.834,28.461 41.180,30.157 C41.489,29.717 41.636,29.093 41.546,28.199 C41.702,27.623 41.940,27.432 42.389,27.726 C42.623,28.445 42.549,29.013 42.333,29.732 C42.187,30.624 41.715,31.163 41.068,31.350 C40.218,31.504 40.106,32.044 40.805,32.703 C41.370,32.422 41.931,31.562 42.445,30.725 C42.997,30.725 42.921,30.631 43.092,31.151 C42.650,32.102 42.000,32.963 41.208,33.762 C42.293,34.865 40.273,37.325 39.493,37.311 C39.427,37.642 39.840,38.228 39.493,38.418 C38.200,38.730 37.356,39.383 36.962,40.376 ZM24.159,25.353 C24.384,25.077 24.207,24.680 23.725,24.404 C23.148,24.897 23.358,25.381 22.352,25.742 C22.103,26.241 22.207,26.695 22.472,27.129 C23.609,26.533 24.155,26.014 24.159,25.353 ZM23.512,34.671 C23.551,33.637 22.412,33.290 22.226,34.628 C22.323,35.224 22.585,35.820 23.301,36.417 C23.780,35.602 23.826,35.368 23.512,34.671 ZM40.549,27.129 C40.814,26.695 40.918,26.241 40.669,25.742 C39.663,25.381 39.874,24.897 39.296,24.404 C38.814,24.680 38.637,25.077 38.862,25.353 C38.866,26.014 39.412,26.533 40.549,27.129 ZM39.720,36.417 C40.436,35.820 40.698,35.224 40.796,34.628 C40.609,33.290 39.470,33.637 39.509,34.671 C39.195,35.368 39.241,35.602 39.720,36.417 ZM38.489,30.956 C38.489,34.836 35.354,38.001 31.511,38.001 C27.667,38.001 24.532,34.836 24.532,30.956 C24.532,27.075 27.667,23.911 31.511,23.911 C35.354,23.911 38.489,27.075 38.489,30.956 ZM31.511,24.699 C28.097,24.699 25.313,27.510 25.313,30.956 C25.313,34.402 28.097,37.212 31.511,37.212 C34.924,37.212 37.708,34.402 37.708,30.956 C37.708,27.510 34.924,24.699 31.511,24.699 ZM32.793,35.249 L30.228,35.249 L30.228,32.250 L27.258,32.250 L27.258,29.661 L30.228,29.661 L30.228,26.663 L32.793,26.663 L32.793,29.661 L35.763,29.661 L35.763,32.250 L32.793,32.250 L32.793,35.249 Z"/>
</svg>
