<svg 
 xmlns="http://www.w3.org/2000/svg"
 xmlns:xlink="http://www.w3.org/1999/xlink"
 width="64px" height="64px">
<path fill-rule="evenodd"  fill="rgb(69, 150, 222)"
 d="M32.000,-0.000 C49.673,-0.000 64.000,14.327 64.000,32.000 C64.000,49.673 49.673,64.000 32.000,64.000 C14.327,64.000 -0.000,49.673 -0.000,32.000 C-0.000,14.327 14.327,-0.000 32.000,-0.000 Z"/>
<path fill-rule="evenodd"  fill="rgb(255, 255, 255)"
 d="M29.503,47.000 C24.639,47.000 20.241,45.034 17.069,41.864 L19.505,34.637 C19.505,32.157 21.526,30.001 24.000,30.000 L29.000,30.000 C29.338,29.618 30.125,28.883 30.399,28.501 L30.281,28.509 C30.526,28.159 30.802,27.859 31.150,27.648 C31.358,27.487 31.745,27.000 32.000,27.000 L47.000,27.000 L47.000,27.385 L47.000,29.692 L47.000,29.692 C47.000,30.069 47.024,30.629 47.000,31.000 L43.000,31.000 C43.434,31.894 43.509,32.772 42.737,33.411 L41.854,34.140 L38.403,36.989 L36.141,38.853 C35.498,39.384 34.605,39.516 33.830,39.195 L32.002,37.110 L29.503,47.000 M32.000,30.000 C31.976,30.846 32.089,32.707 30.982,32.710 L35.254,35.541 L42.000,30.000 L32.000,30.000 ZM17.069,41.864 L17.005,42.055 M32.015,23.012 L43.006,23.012 L43.006,24.998 L32.015,24.998 L32.015,23.012 ZM26.614,27.567 C24.555,28.420 22.185,27.949 20.609,26.376 C19.033,24.803 18.561,22.436 19.413,20.380 C20.266,18.325 22.276,16.984 24.504,16.984 C27.547,16.984 30.013,19.446 30.014,22.484 C30.015,24.709 28.673,26.716 26.614,27.567 Z"/>
</svg>
