<svg 
 xmlns="http://www.w3.org/2000/svg"
 xmlns:xlink="http://www.w3.org/1999/xlink"
 width="64px" height="64px">
<path fill-rule="evenodd"  fill="rgb(69, 150, 222)"
 d="M32.000,-0.000 C49.673,-0.000 64.000,14.327 64.000,32.000 C64.000,49.673 49.673,64.000 32.000,64.000 C14.327,64.000 -0.000,49.673 -0.000,32.000 C-0.000,14.327 14.327,-0.000 32.000,-0.000 Z"/>
<path fill-rule="evenodd"  fill="rgb(255, 255, 255)"
 d="M37.423,44.722 L37.423,41.729 C44.955,40.766 44.651,32.374 44.077,28.522 C42.455,19.923 37.153,17.205 36.714,16.999 C36.714,16.999 30.938,19.923 29.284,28.522 C28.743,32.271 28.440,40.319 35.329,41.660 L35.329,44.756 L26.311,44.756 L26.311,42.623 C28.169,42.245 29.351,41.178 30.026,39.872 C27.291,36.982 27.561,31.926 27.933,29.209 C28.102,28.384 28.270,27.627 28.507,26.905 C27.021,24.772 25.399,23.947 25.197,23.843 C25.197,23.843 20.773,26.079 19.557,32.614 C19.152,35.503 18.916,41.626 24.252,42.623 L24.252,44.721 L16.990,44.721 L16.990,46.991 L46.981,46.991 L46.981,44.721 L37.423,44.722 Z"/>
</svg>
