<svg 
 xmlns="http://www.w3.org/2000/svg"
 xmlns:xlink="http://www.w3.org/1999/xlink"
 width="14px" height="14px">
<path fill-rule="evenodd"  opacity="0.8" fill="rgb(255, 255, 255)"
 d="M9.000,12.000 L9.000,13.000 L8.000,13.000 L8.000,12.000 L8.000,10.000 L4.000,10.000 L3.000,10.000 L3.000,9.000 L3.000,5.000 L3.000,4.000 L4.000,4.000 L8.000,4.000 L8.000,2.000 L8.000,1.000 L9.000,1.000 L9.000,2.000 L14.000,7.000 L9.000,12.000 ZM9.000,3.000 L9.000,4.000 L9.000,5.000 L8.000,5.000 L4.000,5.000 L4.000,9.000 L8.000,9.000 L9.000,9.000 L9.000,10.000 L9.000,11.000 L13.000,7.000 L9.000,3.000 ZM1.000,13.000 L6.000,13.000 L6.000,14.000 L1.000,14.000 L-0.000,14.000 L-0.000,13.000 L-0.000,1.000 L-0.000,-0.000 L1.000,-0.000 L6.000,-0.000 L6.000,1.000 L1.000,1.000 L1.000,13.000 Z"/>
</svg>
