<svg 
 xmlns="http://www.w3.org/2000/svg"
 xmlns:xlink="http://www.w3.org/1999/xlink"
 width="14px" height="14px">
<path fill-rule="evenodd"
 d="M4.550,10.107 C4.725,10.282 4.987,10.253 5.162,10.107 L8.076,7.187 C8.280,6.983 8.630,6.954 8.892,7.187 C9.154,7.421 9.125,7.829 8.892,8.063 L5.308,11.596 C4.521,12.384 3.210,12.384 2.423,11.596 L2.394,11.567 C1.607,10.778 1.607,9.464 2.394,8.676 L8.717,2.341 C9.504,1.552 10.815,1.552 11.602,2.341 L11.631,2.370 C12.418,3.158 12.418,4.472 11.631,5.260 L11.602,5.289 C11.456,5.435 11.427,5.640 11.543,5.815 C11.718,6.136 11.864,6.486 11.951,6.837 C12.010,7.070 12.272,7.129 12.447,6.983 C12.680,6.749 12.884,6.516 12.884,6.516 C14.370,5.027 14.370,2.603 12.884,1.114 L12.825,1.114 C11.339,-0.374 8.921,-0.374 7.435,1.114 L1.112,7.421 C-0.374,8.910 -0.374,11.333 1.112,12.822 L1.170,12.880 C2.656,14.369 5.046,14.369 6.532,12.880 L10.145,9.289 C11.077,8.355 11.048,6.837 10.087,5.903 C9.154,4.998 7.639,5.056 6.736,5.990 L3.880,8.851 C3.705,9.026 3.705,9.318 3.880,9.494 L4.550,10.107 Z"/>
</svg>
