<svg 
 xmlns="http://www.w3.org/2000/svg"
 xmlns:xlink="http://www.w3.org/1999/xlink"
 width="17px" height="18px">
<path fill-rule="evenodd"
 d="M15.005,9.231 L15.005,2.462 C15.005,1.113 13.876,-0.001 12.510,-0.001 L2.493,-0.001 C1.114,-0.001 -0.001,1.113 -0.001,2.462 L-0.001,13.538 C-0.001,14.887 1.127,16.001 2.493,16.001 L7.520,16.001 C8.247,16.001 8.022,15.473 8.022,14.664 C8.111,8.072 15.005,9.231 15.005,9.231 ZM3.749,4.010 L11.255,4.010 C11.677,4.010 12.008,4.227 12.008,4.505 C12.008,4.782 11.677,5.000 11.255,5.000 L3.749,5.000 C3.327,5.000 2.996,4.782 2.996,4.505 C2.996,4.227 3.327,4.010 3.749,4.010 L3.749,4.010 ZM5.984,12.000 L3.978,12.000 C3.417,12.000 2.975,11.782 2.975,11.505 C2.975,11.228 3.417,11.010 3.978,11.010 L5.984,11.010 C6.546,11.010 6.987,11.228 6.987,11.505 C6.987,11.782 6.546,12.000 5.984,12.000 L5.984,12.000 ZM3.749,8.000 C3.327,8.000 2.996,7.782 2.996,7.505 C2.996,7.228 3.327,7.010 3.749,7.010 L11.255,7.010 C11.677,7.010 12.008,7.228 12.008,7.505 C12.008,7.782 11.677,8.000 11.255,8.000 L3.749,8.000 Z"/>
<path fill-rule="evenodd" stroke-width=".0625rem" stroke-linecap="butt" stroke-linejoin="miter"
 d="M12.338,10.750 C13.768,10.750 14.927,11.909 14.927,13.338 C14.927,14.768 13.768,15.927 12.338,15.927 C10.909,15.927 9.750,14.768 9.750,13.338 C9.750,11.909 10.909,10.750 12.338,10.750 Z"/>
<path fill-rule="evenodd"
 d="M12.500,12.266 C13.181,12.266 13.733,12.819 13.733,13.500 C13.733,14.181 13.181,14.733 12.500,14.733 C11.819,14.733 11.266,14.181 11.266,13.500 C11.266,12.819 11.819,12.266 12.500,12.266 Z"/>
</svg>
