<svg t="1663409910680" class="icon" viewBox="0 0 1024 1024" version="1.1" xmlns="http://www.w3.org/2000/svg" p-id="953" width="64" height="64"><path d="M512 808.70327903c-141.21830464 0.21725894-263.02814484-99.21491146-291.05454683-237.60885001-28.02640199-138.39393855 45.40711642-277.43965388 175.61763525-332.18890429 150.92253684-63.7292862 324.94693995 6.95228576 388.74864578 157.87482262 63.80170583 150.92253684-6.87986613 324.94693995-157.80240298 388.74864578-36.57191991 15.42538404-75.82336665 23.31912517-115.50933122 23.1742859z m0-546.55104877c-138.10425997 0-250.06502867 111.9607687-250.06502867 250.06502868 0 138.10425997 111.9607687 250.06502867 250.06502867 250.06502867 138.10425997 0 250.06502867-112.54012585 250.06502867-250.06502868S649.52490282 262.15223026 512 262.15223026z m0 0" fill="#d81e06" p-id="954"></path><path d="M698.26332283 721.65486765c-6.15566969-0.07241965-11.94924116-2.60710716-16.22200012-6.95228577L308.9353199 342.17593622c-9.12487507-9.12487507-9.12487507-23.97090198 0-33.09577703 9.12487507-9.12487507 23.97090198-9.12487507 33.09577703 0L715.0646801 682.18616199c6.5177679 6.6626072 8.40067865 16.51167869 4.92453575 25.05719662-3.54856253 8.61793757-11.87682153 14.26666975-21.14653588 14.33908939h-0.57935715z m0-1e-8" fill="#d81e06" p-id="955"></path></svg>