<svg t="1663402678898" class="icon" viewBox="0 0 1024 1024" version="1.1" xmlns="http://www.w3.org/2000/svg" p-id="889" width="64" height="64"><path d="M709.75390625 264.80761719H610.87695313c0-54.38232422-44.49462891-98.87695313-98.87695313-98.87695313s-98.87695313 44.49462891-98.87695313 98.87695313H314.24609375c-27.19116211 0-49.43847656 22.24731445-49.43847656 49.43847656v494.38476563c0 27.19116211 22.24731445 49.43847656 49.43847656 49.43847656h395.5078125c27.19116211 0 49.43847656-22.24731445 49.43847656-49.43847657V314.24609375c0-27.19116211-22.24731445-49.43847656-49.43847656-49.43847656z m-197.75390625-24.71923828c13.59558106 0 24.71923828 11.12365723 24.71923828 24.71923828s-11.12365723 24.71923828-24.71923828 24.71923828-24.71923828-11.12365723-24.71923828-24.71923828 11.12365723-24.71923828 24.71923828-24.71923828z m197.75390625 568.54248047H314.24609375V314.24609375h49.43847656v49.43847656h296.63085938v-49.43847656h49.43847656v494.38476563z m-45.73059083-312.69836427L471.21325683 688.12457276l-35.22491454-35.22491456 192.19207763-192.19207763 35.84289551 35.22491454z m-262.64190673 52.52838135l105.05676269 105.0567627-35.22491454 35.22491455-105.0567627-105.05676269 35.22491455-35.22491456z" fill="#ffffff" p-id="890"></path></svg>