<svg xmlns="http://www.w3.org/2000/svg" width="40" height="40" viewBox="0 0 40 40">
  <defs>
    <style>
      .cls-1 {
        fill: #fff;
        fill-rule: evenodd;
      }
    </style>
  </defs>
  <path id="流程信息" class="cls-1" d="M232,31.211V32h-0.789c-0.007,0-.013,0-0.02,0h-7.127c-0.007,0-.013,0-0.02,0H223V23h2.913L220,17.085,214.085,23H217v9h-1.044c-0.007,0-.013,0-0.02,0h-7.127c-0.007,0-.013,0-0.02,0H208V31.211c0-.007,0-0.013,0-0.02V24.064c0-.007,0-0.013,0-0.02V23h3.787l6-6H215V8h0.917c0.007,0,.012,0,0.019,0h8.128c0.007,0,.012,0,0.019,0H225v9h-2.789l6,6H232v1.044c0,0.007,0,.013,0,0.02v7.127C232,31.2,232,31.2,232,31.211Z" transform="translate(-200)"/>
</svg>
