<svg t="1663402739058" class="icon" viewBox="0 0 1024 1024" version="1.1" xmlns="http://www.w3.org/2000/svg" p-id="889" width="64" height="64"><path d="M785.39688271 567.00948064c-12.57336949 0-22.85039589 10.23275965-22.91758665 22.96343466l0 166.17938126c0 13.89900429-11.26828793 25.21155899-25.12144423 25.21155899L256.89955976 781.36385555c-13.85473755 0-25.12144423-11.31334493-25.12144423-25.21155899L231.77811552 342.17571685c0-13.89900429 11.2674977-25.21155899 25.12144424-25.211559l224.96893556 0c12.594713-0.022924 22.85039589-10.32287441 22.85039589-22.96185339 0-12.662694-10.25568366-22.96343466-22.87331989-22.96343465l-228.14034045 0c-37.35569821 0-67.76308042 30.47457296-67.76308042 67.92038516l0 420.38578923c0 37.44581296 30.40738221 67.92038515 67.76308042 67.92038514l486.84536782 0c37.35569821 0 67.7622894-30.47457296 67.7622894-67.92038514L808.31288886 589.83695331C808.24569812 577.2422403 797.9686717 567.00948064 785.39688271 567.00948064z" fill="#ffffff" p-id="890"></path><path d="M835.52752343 377.73070274l0-0.245839L678.141438 219.6268618l-4.97132695-4.8353642-0.62922202 0.65214604c-3.48522489-1.95643733-7.42102355-2.99196563-11.49199397-2.99196562-13.11247676 0-23.77288619 10.68333265-23.77288619 23.81715294 0 4.0931034 1.0339478 8.02890206 2.99196562 11.5157082l-0.69799327 0.71933678 109.57234105 109.86481831-112.45205815 0.04426675C453.59777995 381.24043212 408.64082945 494.52328455 395.39397118 670.39631821c0 13.13540077 10.66040866 23.81715293 23.77130494 23.81715294 10.70546643 0 19.79123952-7.12933654 22.76028113-16.91231266l1.07979504-6.319885c13.92192831-166.33668677 46.71181558-248.40349648 194.54021138-264.91108337l111.59675938 0L644.42827018 511.07671947l-4.2504089 5.98234996c-1.50744481 3.17061387-2.29397235 7.03922179-2.29397234 10.54816093 0 13.1338195 10.65961841 23.81715293 23.77130493 23.81715293 3.73264515 0 7.84867254-0.89956552 11.15445893-2.60858259L834.8595679 387.43067862c1.43709232-1.00865229 3.19828088-3.49550114 3.19828088-5.38474771C838.05705853 380.15668432 836.96461574 378.73935427 835.52752343 377.73070274z" fill="#ffffff" p-id="891"></path></svg>