<svg xmlns="http://www.w3.org/2000/svg" width="40" height="40" viewBox="0 0 40 40">
  <defs>
    <style>
      .cls-1 {
        fill: #fff;
        fill-rule: evenodd;
      }
    </style>
  </defs>
  <path id="新图形查看" class="cls-1" d="M184,32V31h7V22h1V32h-8Zm7-23h-7V8h8v9h-1V9Zm-22,8h-1V8h8V9h-7v8Zm1-7h20V30H170V10Zm1,16c0.222-.346,1.118-0.5,1.389-0.843s-0.335-.659-0.039-0.938a4.842,4.842,0,0,1,.915-0.688,1.9,1.9,0,0,1,.951-0.269,4.741,4.741,0,0,1,.989.09,4.016,4.016,0,0,1,.739.23,4.7,4.7,0,0,1,.6.309,4.781,4.781,0,0,0,.6.309,4.055,4.055,0,0,0,.73.229,4.607,4.607,0,0,0,.979.09,1.44,1.44,0,0,0,.989-0.369,4.265,4.265,0,0,0,.767-0.928q0.351-.559.7-1.2a8.593,8.593,0,0,1,.794-1.2,3.939,3.939,0,0,1,1.054-.928,2.8,2.8,0,0,1,1.478-.369,2.414,2.414,0,0,1,1.423.489,5.845,5.845,0,0,1,1.265,1.267,12,12,0,0,1,1.072,1.736c0.022,0.043.587-.068,0.6-0.022V11H171V26Zm8.15-7.4a2.9,2.9,0,0,1-.915.678,2.578,2.578,0,0,1-1.118.249,2.622,2.622,0,0,1-1.136-.249,2.9,2.9,0,0,1-.915-0.678,3.368,3.368,0,0,1-.619-1,3.269,3.269,0,0,1,0-2.414,3.234,3.234,0,0,1,.619-0.988,2.967,2.967,0,0,1,.915-0.668,2.622,2.622,0,0,1,1.136-.249,2.578,2.578,0,0,1,1.118.249,2.967,2.967,0,0,1,.915.668,3.215,3.215,0,0,1,.619.988,3.269,3.269,0,0,1,0,2.414A3.348,3.348,0,0,1,179.15,18.6ZM169,31h7v1h-8V22h1v9Z" transform="translate(-160)"/>
</svg>
