<svg 
 xmlns="http://www.w3.org/2000/svg"
 xmlns:xlink="http://www.w3.org/1999/xlink"
 width="29px" height="26px">
<path fill-rule="evenodd"  fill="rgb(255, 255, 255)"
 d="M20.153,26.000 C15.268,26.000 11.307,22.015 11.307,17.101 C11.307,12.186 15.268,8.202 20.153,8.202 C25.039,8.202 29.000,12.186 29.000,17.101 C29.000,22.015 25.039,26.000 20.153,26.000 ZM16.869,6.971 L16.869,5.837 C16.869,5.740 16.790,5.662 16.695,5.662 L4.163,5.662 C4.067,5.662 3.989,5.740 3.989,5.837 L3.989,7.902 C3.989,7.999 4.067,8.078 4.163,8.078 L14.524,8.078 C13.201,8.915 12.075,10.038 11.233,11.361 L11.233,10.742 C11.233,10.645 11.154,10.567 11.058,10.567 L4.163,10.567 C4.067,10.567 3.989,10.645 3.989,10.742 L3.989,12.807 C3.989,12.904 4.067,12.982 4.163,12.982 L10.385,12.982 C9.857,14.249 9.565,15.641 9.565,17.101 C9.565,20.798 11.438,24.055 14.281,25.965 L0.784,25.965 C0.351,25.965 -0.000,25.613 -0.000,25.176 L-0.000,0.789 C-0.000,0.353 0.351,-0.000 0.784,-0.000 L20.096,-0.000 C20.528,-0.000 20.880,0.353 20.880,0.789 L20.880,6.474 C20.640,6.457 20.397,6.449 20.153,6.449 C19.007,6.449 17.902,6.632 16.869,6.971 ZM3.989,17.697 C3.989,17.794 4.067,17.873 4.163,17.873 L7.863,17.873 C7.959,17.873 8.037,17.794 8.037,17.697 L8.037,15.633 C8.037,15.536 7.959,15.457 7.863,15.457 L4.163,15.457 C4.067,15.457 3.989,15.536 3.989,15.633 L3.989,17.697 Z"/>
<path fill-rule="evenodd"  fill="rgb(69, 150, 222)"
 d="M19.000,19.000 L19.000,16.000 L26.000,16.000 L26.000,19.000 L19.000,19.000 ZM18.992,13.990 L18.992,21.009 L13.988,17.500 L18.992,13.990 Z"/>
</svg>
