<svg 
 xmlns="http://www.w3.org/2000/svg"
 xmlns:xlink="http://www.w3.org/1999/xlink"
 width="20px" height="20px">
<path fill-rule="evenodd"  fill="rgb(255, 255, 255)"
 d="M18.924,2.917 C17.958,2.917 16.384,2.800 14.399,2.241 C11.560,1.441 10.000,-0.000 10.000,-0.000 C10.000,-0.000 8.440,1.441 5.601,2.241 C3.617,2.800 2.044,2.917 1.077,2.917 C0.384,2.917 0.002,2.857 0.002,2.857 C0.002,2.857 0.028,5.453 0.802,10.039 C1.627,14.936 4.201,17.757 6.201,18.837 C8.334,19.988 9.949,19.997 10.000,19.997 C10.050,19.997 11.665,19.988 13.798,18.837 C15.798,17.757 18.372,14.936 19.198,10.039 C19.972,5.454 19.999,2.857 19.999,2.857 C19.999,2.857 19.616,2.917 18.924,2.917 ZM17.406,9.737 C17.391,9.825 17.376,9.912 17.360,9.999 L10.000,9.999 L10.000,18.179 C9.861,18.172 8.649,18.092 7.065,17.237 C6.553,16.961 5.550,16.284 4.560,14.841 C4.094,14.156 3.705,13.422 3.400,12.652 C3.060,11.794 2.806,10.906 2.641,9.998 L10.000,9.998 L10.000,2.255 C10.057,2.292 10.117,2.330 10.179,2.368 C11.340,3.080 12.595,3.626 13.907,3.991 C15.583,4.463 17.004,4.648 18.065,4.709 C17.962,5.885 17.769,7.587 17.406,9.737 Z"/>
</svg>
