<svg t="1664854175582" class="icon" viewBox="0 0 1024 1024" version="1.1" xmlns="http://www.w3.org/2000/svg" p-id="1233" width="200" height="200"><path d="M735.24562073 805.77269745l-49.51572419-48.97499085 0.07724763 51.83315277H215.36914062V215.36914062h296.78535462v168.09082032h3.08990479v3.32164765h170.0220108V457.15419006c8.6517334 5.94806672 16.83998108 12.74585724 24.48749542 20.31612397 9.57870484 9.42420959 17.92144776 19.77539063 24.95098114 30.82180023l-0.07724762-39.16454315V330.31359863L568.69975281 165.93066406H165.93066406v692.13867188h569.31495667v-52.2966385zM561.5929718 228.50123596l109.92336274 108.84189607H561.5929718V228.50123596z" fill="#ffffff" p-id="1234"></path><path d="M264.80761719 264.80761719h197.75390625v49.43847656H264.80761719z" fill="#ffffff" p-id="1235"></path><path d="M439.30998992 709.75390625H264.80761719v49.43847656h231.43386841c-14.36805725-7.95650482-27.73189545-17.84420014-39.70527649-29.74033356-6.25705719-6.17980958-11.97338105-12.74585724-17.22621919-19.698143zM264.80761719 413.12304687v49.43847657h208.72306823c25.56896211-19.69814301 55.77278138-31.98051453 87.90779114-35.7656479V413.12304687H264.80761719z m139.04571533 190.33813477c0-14.36805725 1.69944763-28.42712403 5.02109528-42.02270508H264.80761719v49.43847656h139.20021057c-0.07724763-2.47192383-0.15449524-4.94384766-0.15449524-7.41577148z" fill="#ffffff" p-id="1236"></path><path d="M850.73081208 815.814888L715.85646821 682.33100128c14.29080964-23.56052399 21.93832398-50.59719086 21.93832396-78.86981964 0-41.01848603-16.14475251-79.4878006-45.34435272-108.45565796-29.19960022-28.89060974-67.97790528-44.80361938-109.22813416-44.80361938s-80.02853393 15.91300964-109.22813415 44.80361938c-29.27684784 28.96785737-45.34435273 67.43717194-45.34435273 108.45565796s16.14475251 79.4878006 45.34435273 108.45565796c29.19960022 28.89060974 67.97790528 44.80361938 109.22813415 44.80361938 37.23335266 0 72.45826721-12.9776001 100.42190552-36.69261932l132.32517243 130.93471527c4.78935242 4.78935242 11.12365723 7.18402863 17.38071442 7.18402864 6.33430481 0 12.74585724-2.47192383 17.53520965-7.33852388 9.65595246-9.81044769 9.57870484-25.41446686-0.15449524-34.9931717zM583.22230529 707.28198242c-58.01296235 0-105.21125794-46.58031464-105.21125792-103.82080078S525.20934297 499.64038086 583.22230529 499.64038086s105.21125794 46.58031464 105.21125794 103.82080078-47.27554321 103.82080078-105.21125794 103.82080078z" fill="#ffffff" p-id="1237"></path></svg>