<svg 
 xmlns="http://www.w3.org/2000/svg"
 xmlns:xlink="http://www.w3.org/1999/xlink"
 width="12px" height="16px">
<path fill-rule="evenodd"
 d="M11.813,14.753 C11.690,15.014 11.528,15.236 11.325,15.418 C11.122,15.600 10.898,15.742 10.653,15.844 C10.408,15.946 10.168,15.998 9.933,15.998 L2.064,15.998 C1.861,15.998 1.640,15.935 1.400,15.810 C1.160,15.685 0.936,15.520 0.728,15.315 C0.521,15.111 0.347,14.878 0.209,14.616 C0.070,14.355 0.001,14.082 0.001,13.798 L0.001,2.203 C0.001,1.965 0.051,1.718 0.153,1.462 C0.254,1.206 0.393,0.970 0.569,0.754 C0.744,0.538 0.944,0.359 1.168,0.217 C1.392,0.075 1.627,0.004 1.872,0.004 L7.982,0.004 L7.982,2.135 C7.982,2.363 8.014,2.599 8.078,2.843 C8.142,3.087 8.243,3.315 8.382,3.525 C8.521,3.735 8.697,3.909 8.910,4.045 C9.123,4.181 9.374,4.250 9.661,4.250 L11.997,4.250 L11.997,13.866 C11.997,14.196 11.935,14.491 11.813,14.753 ZM9.500,6.000 L2.500,6.000 C2.224,6.000 2.000,6.224 2.000,6.500 C2.000,6.776 2.224,7.000 2.500,7.000 L9.500,7.000 C9.776,7.000 10.000,6.776 10.000,6.500 C10.000,6.224 9.776,6.000 9.500,6.000 ZM9.500,9.000 L2.500,9.000 C2.224,9.000 2.000,9.224 2.000,9.500 C2.000,9.776 2.224,10.000 2.500,10.000 L9.500,10.000 C9.776,10.000 10.000,9.776 10.000,9.500 C10.000,9.224 9.776,9.000 9.500,9.000 ZM9.500,12.000 L2.500,12.000 C2.224,12.000 2.000,12.224 2.000,12.500 C2.000,12.776 2.224,13.000 2.500,13.000 L9.500,13.000 C9.776,13.000 10.000,12.776 10.000,12.500 C10.000,12.224 9.776,12.000 9.500,12.000 ZM9.350,3.047 C9.270,2.962 9.203,2.863 9.150,2.749 C9.096,2.635 9.056,2.519 9.030,2.400 C9.003,2.280 8.990,2.186 8.990,2.118 L8.990,0.004 L9.038,0.004 C9.123,0.004 9.211,0.018 9.302,0.047 C9.392,0.075 9.496,0.129 9.614,0.209 C9.731,0.288 9.877,0.402 10.053,0.550 C10.229,0.697 10.451,0.896 10.717,1.146 C11.005,1.431 11.234,1.666 11.405,1.854 C11.576,2.042 11.706,2.201 11.797,2.331 C11.887,2.462 11.943,2.573 11.965,2.664 C11.986,2.755 11.997,2.834 11.997,2.903 L11.997,3.175 L9.630,3.175 C9.523,3.175 9.430,3.133 9.350,3.047 Z"/>
</svg>
