<svg 
 xmlns="http://www.w3.org/2000/svg"
 xmlns:xlink="http://www.w3.org/1999/xlink"
 width="64px" height="64px">
<path fill-rule="evenodd" fill="rgb(69, 150, 222)"
 d="M32.000,-0.000 C49.673,-0.000 64.000,14.327 64.000,32.000 C64.000,49.673 49.673,64.000 32.000,64.000 C14.327,64.000 -0.000,49.673 -0.000,32.000 C-0.000,14.327 14.327,-0.000 32.000,-0.000 Z"/>
<path fill-rule="evenodd"  fill="rgb(255, 255, 255)"
 d="M42.273,47.996 C43.059,47.996 43.732,46.821 43.732,46.521 L46.357,39.612 L47.930,39.612 C48.194,39.612 48.455,39.310 48.718,39.310 C49.243,38.714 49.243,37.802 48.718,37.207 C48.455,36.907 48.194,36.907 47.930,36.907 L45.832,36.907 L43.732,21.284 C43.732,20.683 43.205,20.383 42.944,20.082 L34.281,17.077 C33.756,16.778 33.232,17.077 32.968,17.676 L29.555,23.390 L28.506,22.187 C28.243,21.888 27.979,21.888 27.718,21.888 L23.517,21.888 C22.993,21.888 22.468,22.187 22.468,22.788 L18.267,36.907 L18.267,37.207 L16.167,37.207 C15.379,37.207 14.854,37.808 14.854,38.709 C14.854,39.612 15.379,40.211 16.167,40.211 L17.743,40.211 L20.368,47.123 C20.368,47.722 20.892,48.023 21.680,48.023 L42.273,47.996 ZM26.839,47.996 L35.413,47.996 L26.839,47.996 ZM21.694,35.916 L23.783,23.984 L26.669,23.984 L28.506,26.088 C28.770,26.390 29.033,26.390 29.555,26.390 C29.821,26.390 30.082,26.088 30.345,25.788 L34.017,19.480 L41.104,22.185 L42.273,35.916 L21.694,35.916 L21.694,35.916 Z"/>
</svg>
