<svg 
 xmlns="http://www.w3.org/2000/svg"
 xmlns:xlink="http://www.w3.org/1999/xlink"
 width="20px" height="20px">
<path fill-rule="evenodd"  opacity="0.302"
 d="M10.000,-0.000 C15.523,-0.000 20.000,4.477 20.000,10.000 C20.000,15.523 15.523,20.000 10.000,20.000 C4.477,20.000 -0.000,15.523 -0.000,10.000 C-0.000,4.477 4.477,-0.000 10.000,-0.000 Z"/>
<path fill-rule="evenodd"  opacity="0.8" fill="rgb(255, 255, 255)"
 d="M10.000,20.000 C6.914,20.000 4.157,18.601 2.323,16.404 C3.291,13.283 6.358,11.000 10.000,11.000 C13.641,11.000 16.709,13.283 17.677,16.404 C15.843,18.601 13.085,20.000 10.000,20.000 ZM14.000,6.000 C14.000,8.209 12.209,10.000 10.000,10.000 C7.791,10.000 6.000,8.209 6.000,6.000 C6.000,3.791 7.791,2.000 10.000,2.000 C12.209,2.000 14.000,3.791 14.000,6.000 Z"/>
</svg>
