<svg 
 xmlns="http://www.w3.org/2000/svg"
 xmlns:xlink="http://www.w3.org/1999/xlink"
 width="19px" height="19px">
<path fill-rule="evenodd"  fill="rgb(255, 255, 255)"
 d="M18.814,9.783 C18.692,9.933 18.510,10.022 18.316,10.027 C18.122,10.032 17.936,9.951 17.807,9.807 L10.147,1.648 C10.105,1.605 10.047,1.580 9.987,1.580 C9.927,1.580 9.869,1.605 9.827,1.648 L2.169,9.807 C2.042,9.946 1.863,10.025 1.676,10.027 C1.477,10.025 1.289,9.936 1.161,9.784 C0.890,9.456 0.900,8.980 1.184,8.664 L8.842,0.504 C9.136,0.181 9.551,-0.003 9.988,-0.005 C10.419,-0.005 10.827,0.175 11.134,0.504 L18.794,8.664 C19.075,8.965 19.087,9.468 18.814,9.783 ZM17.117,5.275 L17.116,5.275 C16.725,5.275 16.407,4.920 16.407,4.485 L16.407,1.580 L13.794,1.580 C13.401,1.580 13.082,1.226 13.082,0.788 C13.082,0.349 13.401,-0.004 13.794,-0.004 L16.407,-0.004 C17.191,-0.004 17.830,0.706 17.830,1.581 L17.830,4.487 C17.830,4.920 17.509,5.275 17.117,5.275 ZM3.576,9.501 C3.970,9.501 4.288,9.856 4.288,10.293 L4.288,17.157 C4.288,17.304 4.396,17.423 4.525,17.423 L7.376,17.423 C7.507,17.423 7.612,17.303 7.612,17.157 L7.612,12.933 C7.612,12.497 7.931,12.141 8.325,12.141 L11.649,12.141 C12.042,12.141 12.361,12.497 12.361,12.933 L12.361,17.157 C12.361,17.304 12.466,17.423 12.599,17.423 L15.449,17.423 C15.581,17.423 15.687,17.303 15.687,17.157 L15.687,10.293 C15.687,9.856 16.007,9.501 16.399,9.501 C16.793,9.501 17.111,9.856 17.111,10.293 L17.111,17.157 C17.112,18.178 16.364,19.005 15.449,19.005 L12.601,19.005 C11.684,19.005 10.937,18.178 10.937,17.157 L10.937,13.724 L9.037,13.724 L9.037,17.157 C9.037,18.178 8.291,19.005 7.376,19.005 L4.525,19.005 C3.609,19.005 2.864,18.178 2.864,17.157 L2.864,10.293 C2.864,9.856 3.183,9.501 3.576,9.501 Z"/>
</svg>
