<svg 
 xmlns="http://www.w3.org/2000/svg"
 xmlns:xlink="http://www.w3.org/1999/xlink"
 width="20px" height="19px">
<path fill-rule="evenodd"  fill="rgb(255, 255, 255)"
 d="M19.792,19.006 L0.209,19.006 C0.099,19.006 0.009,18.916 0.009,18.805 L0.009,18.204 C0.009,18.094 0.099,18.004 0.209,18.004 L19.792,18.004 C19.903,18.004 19.992,18.094 19.992,18.204 L19.992,18.805 C19.992,18.916 19.903,19.006 19.792,19.006 L19.792,19.006 ZM15.859,13.550 L11.599,13.550 C11.542,13.550 11.488,13.528 11.448,13.488 C11.408,13.448 11.385,13.394 11.385,13.338 L11.385,12.700 C11.385,12.583 11.481,12.488 11.599,12.488 L15.859,12.488 C15.977,12.488 16.072,12.583 16.072,12.700 L16.072,13.338 C16.072,13.455 15.977,13.550 15.859,13.550 L15.859,13.550 ZM19.800,0.000 L0.202,0.000 C0.084,0.000 -0.011,0.096 -0.011,0.213 L-0.011,16.792 C-0.011,16.909 0.084,17.004 0.202,17.004 L19.800,17.004 C19.918,17.004 20.013,16.909 20.013,16.792 L20.013,0.213 C20.013,0.096 19.918,0.000 19.800,0.000 L19.800,0.000 ZM5.740,3.720 C7.035,3.720 8.084,4.767 8.084,6.058 C8.084,7.349 7.035,8.396 5.740,8.396 C4.446,8.396 3.397,7.349 3.397,6.058 C3.397,4.767 4.446,3.720 5.740,3.720 L5.740,3.720 ZM3.397,9.831 C3.397,9.713 3.492,9.618 3.610,9.618 L7.871,9.618 C7.988,9.618 8.084,9.713 8.084,9.831 L8.084,10.468 C8.084,10.586 7.988,10.681 7.871,10.681 L3.610,10.681 C3.554,10.681 3.499,10.659 3.460,10.619 C3.420,10.579 3.397,10.525 3.397,10.468 L3.397,9.831 ZM16.395,7.771 L16.392,7.774 L16.392,7.780 L15.992,8.179 L15.985,8.179 L14.286,9.874 C14.247,9.914 14.192,9.937 14.136,9.937 C14.079,9.937 14.025,9.914 13.985,9.874 L13.534,9.424 C13.450,9.341 13.450,9.206 13.534,9.123 L14.479,8.180 L13.128,8.180 L7.829,13.466 C7.790,13.521 7.726,13.554 7.658,13.554 L3.610,13.554 C3.554,13.554 3.499,13.531 3.460,13.492 C3.420,13.452 3.397,13.398 3.397,13.341 L3.397,12.704 C3.397,12.586 3.492,12.491 3.610,12.491 L7.300,12.491 L12.599,7.205 C12.639,7.150 12.702,7.117 12.770,7.117 L14.540,7.117 L13.534,6.113 C13.494,6.073 13.471,6.019 13.471,5.962 C13.471,5.906 13.494,5.852 13.534,5.812 L13.985,5.361 C14.025,5.321 14.080,5.299 14.136,5.299 C14.193,5.299 14.247,5.321 14.287,5.361 L16.395,7.465 C16.437,7.507 16.458,7.563 16.457,7.618 C16.458,7.675 16.436,7.730 16.395,7.771 L16.395,7.771 Z"/>
</svg>
