<svg 
 xmlns="http://www.w3.org/2000/svg"
 xmlns:xlink="http://www.w3.org/1999/xlink"
 width="64px" height="64px">
<path fill-rule="evenodd"  fill="rgb(69, 150, 222)"
 d="M32.000,-0.000 C49.673,-0.000 64.000,14.327 64.000,32.000 C64.000,49.673 49.673,64.000 32.000,64.000 C14.327,64.000 -0.000,49.673 -0.000,32.000 C-0.000,14.327 14.327,-0.000 32.000,-0.000 Z"/>
<path fill-rule="evenodd"  fill="rgb(255, 255, 255)"
 d="M45.668,20.141 L45.668,21.854 L43.729,22.357 L43.219,24.977 L40.464,26.085 L40.056,28.604 L37.300,29.108 L36.892,31.828 L34.035,32.130 L33.831,35.354 L32.566,34.757 L31.872,37.074 L25.137,30.123 C25.137,29.921 42.913,17.018 42.913,17.018 L46.994,19.436 L45.668,20.141 ZM26.688,46.940 C23.219,47.948 16.994,36.563 16.994,36.563 L23.423,31.526 L30.157,38.377 C26.994,38.779 29.953,46.034 26.688,46.940 ZM24.851,37.268 C24.545,36.160 25.361,33.944 23.729,34.649 C22.300,35.153 21.688,36.160 21.484,37.268 C21.280,38.779 21.790,40.492 22.606,41.500 C23.423,42.608 24.851,44.019 25.565,41.903 C26.076,40.291 25.157,38.779 24.851,37.268 ZM40.500,35.000 C43.538,35.000 46.000,35.895 46.000,37.000 C46.000,38.105 43.538,39.000 40.500,39.000 C37.462,39.000 35.000,38.105 35.000,37.000 C35.000,35.895 37.462,35.000 40.500,35.000 ZM40.500,40.000 C43.538,40.000 46.000,39.105 46.000,38.000 L46.000,45.000 C46.000,46.105 43.538,47.000 40.500,47.000 C37.462,47.000 35.000,46.105 35.000,45.000 L35.000,38.000 C35.000,39.105 37.462,40.000 40.500,40.000 Z"/>
</svg>
