<svg 
 xmlns="http://www.w3.org/2000/svg"
 xmlns:xlink="http://www.w3.org/1999/xlink"
 width="64px" height="64px">
<path fill-rule="evenodd"  fill="rgb(69, 150, 222)"
 d="M32.000,-0.000 C49.673,-0.000 64.000,14.327 64.000,32.000 C64.000,49.673 49.673,64.000 32.000,64.000 C14.327,64.000 -0.000,49.673 -0.000,32.000 C-0.000,14.327 14.327,-0.000 32.000,-0.000 Z"/>
<path fill-rule="evenodd"  fill="rgb(255, 255, 255)"
 d="M47.748,45.998 L18.049,45.998 C17.455,45.998 16.993,45.534 16.993,44.937 C16.993,44.341 17.455,43.877 18.049,43.877 L25.617,43.877 L26.080,40.298 L19.873,40.298 C19.675,40.298 19.477,40.165 19.411,40.033 C19.345,39.834 19.345,39.635 19.411,39.502 L20.401,37.911 L19.939,37.978 L19.873,37.978 C19.675,37.978 19.543,37.912 19.411,37.713 C19.279,37.514 19.279,37.315 19.411,37.116 L22.712,31.681 L21.193,31.880 L21.127,31.880 C20.929,31.880 20.797,31.813 20.665,31.615 C20.533,31.416 20.533,31.217 20.665,31.084 L21.590,29.494 L21.260,29.560 C21.062,29.626 20.863,29.494 20.732,29.361 C20.599,29.162 20.599,28.963 20.732,28.764 L23.240,24.589 L22.184,24.589 C21.986,24.589 21.788,24.456 21.722,24.324 C21.656,24.125 21.656,23.926 21.788,23.793 L23.835,21.142 L23.306,21.142 C23.108,21.142 22.976,21.076 22.844,20.877 C22.778,20.744 22.712,20.546 22.844,20.347 L27.598,11.266 C27.664,11.067 27.862,11.001 28.060,11.001 C28.258,11.001 28.456,11.133 28.522,11.266 L33.277,20.280 C33.343,20.347 33.343,20.479 33.343,20.545 C33.343,20.810 33.078,21.076 32.814,21.076 L32.286,21.076 L34.267,23.727 C34.333,23.793 34.399,23.926 34.399,24.058 C34.399,24.323 34.135,24.589 33.871,24.589 L32.814,24.589 L35.323,28.698 C35.389,28.764 35.455,28.897 35.455,29.030 C35.455,29.295 35.191,29.560 34.927,29.560 L34.795,29.560 L34.465,29.494 L35.323,31.018 C35.389,31.084 35.389,31.217 35.389,31.349 C35.389,31.615 35.191,31.880 34.861,31.880 L34.729,31.880 L33.210,31.747 L36.512,37.182 C36.644,37.381 36.644,37.580 36.512,37.779 C36.380,37.978 36.182,38.044 35.984,37.978 L35.521,37.911 L36.512,39.436 C36.578,39.502 36.644,39.635 36.644,39.767 C36.644,40.033 36.446,40.298 36.116,40.298 L29.843,40.298 L30.371,43.877 L38.493,43.877 L38.757,41.822 L34.531,41.822 C34.399,41.822 34.267,41.756 34.201,41.623 C34.135,41.491 34.135,41.358 34.201,41.292 L34.465,40.894 L35.984,40.894 C36.578,40.894 36.974,40.430 36.974,39.834 C36.974,39.635 36.908,39.370 36.776,39.237 L36.314,38.574 C36.512,38.508 36.644,38.375 36.776,38.177 C36.974,37.845 37.040,37.381 36.776,37.050 L36.578,36.056 L35.720,34.664 L35.653,34.531 L35.257,33.868 L34.333,32.344 L34.861,32.410 L35.059,32.410 C35.653,32.410 36.050,31.946 36.050,31.349 L36.050,31.151 C36.050,31.018 35.984,30.952 35.918,30.819 C35.918,30.753 35.918,30.687 35.984,30.621 L37.370,28.831 L37.040,28.831 C36.908,28.831 36.776,28.764 36.710,28.632 C36.644,28.499 36.644,28.367 36.710,28.300 L39.945,22.202 C40.011,22.070 40.143,22.004 40.275,22.004 C40.407,22.004 40.540,22.070 40.606,22.202 L43.841,28.300 C43.907,28.367 43.907,28.433 43.907,28.499 C43.907,28.698 43.775,28.831 43.577,28.831 L43.247,28.831 L44.567,30.621 C44.633,30.687 44.633,30.753 44.633,30.886 C44.633,31.084 44.501,31.217 44.303,31.217 L43.577,31.217 L45.294,34.001 C45.360,34.067 45.360,34.133 45.360,34.200 C45.360,34.399 45.227,34.531 45.029,34.531 L44.567,34.531 L45.161,35.592 C45.227,35.658 45.227,35.724 45.227,35.790 C45.227,35.989 45.095,36.122 44.897,36.122 L43.841,35.989 L46.086,39.635 C46.152,39.767 46.152,39.900 46.086,40.033 C46.020,40.165 45.888,40.231 45.756,40.165 L45.425,40.099 L46.086,41.159 C46.152,41.226 46.152,41.292 46.152,41.358 C46.152,41.557 46.020,41.690 45.822,41.690 L41.596,41.690 L41.926,43.744 L47.946,43.744 C48.540,43.744 49.002,44.208 49.002,44.805 C49.002,45.401 48.342,45.998 47.748,45.998 L47.748,45.998 ZM21.127,29.626 C21.127,29.626 21.193,29.626 21.127,29.626 C21.193,29.626 21.193,29.626 21.127,29.626 L21.127,29.626 Z"/>
</svg>
