<svg 
 xmlns="http://www.w3.org/2000/svg"
 xmlns:xlink="http://www.w3.org/1999/xlink"
 width="64px" height="64px">
<path fill-rule="evenodd"  fill="rgb(69, 150, 222)"
 d="M32.000,-0.000 C49.673,-0.000 64.000,14.327 64.000,32.000 C64.000,49.673 49.673,64.000 32.000,64.000 C14.327,64.000 -0.000,49.673 -0.000,32.000 C-0.000,14.327 14.327,-0.000 32.000,-0.000 Z"/>
<path fill-rule="evenodd"  fill="rgb(255, 255, 255)"
 d="M32.259,18.197 C32.259,20.677 33.104,22.414 33.104,25.291 C33.104,26.514 32.169,27.021 31.979,28.112 C31.886,28.649 31.887,29.343 31.829,29.909 C31.766,30.520 31.717,31.131 31.626,31.688 C31.428,32.894 31.164,33.708 30.617,34.644 C29.996,35.706 29.615,36.039 28.823,36.829 C28.381,37.270 27.798,37.543 27.682,37.666 C27.569,37.786 27.416,39.071 27.359,39.337 C27.119,40.450 26.782,41.338 26.328,42.266 C25.921,43.097 25.154,44.247 26.001,45.060 C26.461,45.502 26.606,45.526 27.351,45.703 C28.540,45.985 28.701,46.000 29.790,46.000 C32.139,46.000 32.690,43.207 33.350,41.610 C33.628,40.937 33.835,40.339 34.092,39.668 C34.578,38.401 35.032,37.004 35.921,36.209 C36.714,35.499 38.444,35.099 38.444,33.377 L38.444,32.065 C38.444,30.584 38.152,28.940 38.005,27.523 C37.889,26.412 37.316,24.514 36.931,23.571 C36.309,22.051 35.511,20.865 34.505,19.695 C34.278,19.431 34.104,19.309 33.866,19.076 C33.714,18.926 32.608,18.000 32.406,18.000 C32.293,18.000 32.259,18.074 32.259,18.197 L32.259,18.197 ZM26.310,38.414 C26.310,39.139 25.347,39.845 24.484,39.594 C23.750,39.380 22.695,38.208 23.218,38.208 C24.282,38.208 24.097,38.357 25.005,38.558 C25.906,38.758 26.310,38.053 26.310,38.414 L26.310,38.414 ZM25.938,33.625 C25.938,33.485 26.616,31.997 27.363,32.558 C27.707,32.817 28.270,33.752 28.270,34.370 C28.270,34.812 27.389,35.533 27.140,35.533 C26.913,35.533 26.888,35.299 26.776,35.081 C26.691,34.915 26.581,34.803 26.467,34.638 C26.315,34.418 25.938,33.927 25.938,33.625 L25.938,33.625 ZM20.834,34.264 C20.834,34.681 21.149,34.889 21.456,35.097 C21.721,35.277 22.101,35.616 22.390,35.335 C22.586,35.146 23.538,33.950 23.538,33.625 L23.538,33.413 C23.538,33.121 22.760,32.330 22.165,32.330 C21.938,32.330 21.674,33.075 21.495,33.291 C21.341,33.478 20.834,33.930 20.834,34.264 L20.834,34.264 ZM17.589,25.078 C17.589,25.698 17.894,26.113 18.194,26.474 C18.428,26.755 18.870,27.348 19.127,27.511 C19.727,27.890 20.061,27.744 20.474,27.326 C20.670,27.127 21.172,26.418 21.172,26.071 L21.172,25.503 C21.172,25.077 19.745,23.599 19.445,23.299 C18.718,22.573 17.589,24.233 17.589,25.078 L17.589,25.078 ZM27.290,25.255 C27.290,24.473 28.449,23.234 28.932,22.925 C29.508,22.557 29.840,22.895 30.117,23.342 C30.311,23.652 30.636,24.315 30.636,24.794 C30.636,25.513 30.552,26.125 30.056,26.721 C29.668,27.188 29.553,27.323 28.948,27.661 C28.556,27.880 28.560,27.681 28.342,27.452 C28.143,27.243 28.078,27.117 27.906,26.848 C27.582,26.342 27.290,25.908 27.290,25.255 L27.290,25.255 ZM17.488,30.824 L17.488,29.760 C17.488,29.646 17.522,29.662 17.522,29.369 C17.522,29.006 17.267,29.651 17.250,29.718 C16.857,31.256 17.297,33.009 16.638,34.967 C16.066,36.666 15.359,38.237 14.159,39.213 C13.840,39.473 13.637,39.760 13.303,40.044 C12.993,40.308 12.726,40.561 12.393,40.824 C12.081,41.071 11.836,41.378 11.541,41.655 C11.305,41.878 10.964,42.287 11.000,42.767 C11.045,43.374 11.297,43.451 11.835,43.607 C13.033,43.957 14.966,44.476 16.207,44.378 C18.157,44.223 19.772,43.250 20.998,42.384 C21.670,41.909 22.176,41.325 22.748,40.757 C22.960,40.547 23.280,40.082 23.492,39.814 C23.736,39.506 23.098,39.077 22.921,38.880 C21.896,37.735 19.983,37.551 18.879,36.161 C18.450,35.621 17.977,34.656 17.828,33.843 L17.488,30.824 L17.488,30.824 ZM39.498,19.556 C39.491,19.757 39.890,20.110 40.017,20.234 C40.255,20.467 40.373,20.660 40.574,20.931 C41.555,22.257 41.777,22.573 42.513,24.001 C42.834,24.623 42.987,25.086 43.255,25.765 C43.771,27.069 43.984,28.251 44.202,29.813 C44.420,31.369 44.243,32.966 44.020,34.438 C43.639,36.947 43.298,38.480 44.040,40.987 C44.226,41.616 44.492,42.230 44.696,42.836 C45.137,44.143 45.639,45.209 47.260,45.274 C48.498,45.324 50.501,44.783 51.369,44.347 C52.556,43.751 53.335,42.855 52.863,41.200 C52.499,39.923 52.168,38.575 51.779,37.296 C51.585,36.658 51.408,35.955 51.246,35.335 C51.081,34.708 50.845,34.056 50.692,33.396 C50.554,32.800 49.725,30.167 49.504,29.583 C48.510,26.952 47.837,25.261 45.987,23.128 C45.583,22.662 45.176,22.281 44.727,21.874 C44.508,21.675 44.257,21.529 44.016,21.327 C43.738,21.094 43.542,21.040 43.243,20.842 C42.536,20.374 40.568,19.509 39.498,19.556 Z"/>
</svg>
