<svg 
 xmlns="http://www.w3.org/2000/svg"
 xmlns:xlink="http://www.w3.org/1999/xlink"
 width="64px" height="64px">
<path fill-rule="evenodd"  fill="rgb(69, 150, 222)"
 d="M32.000,-0.000 C49.673,-0.000 64.000,14.327 64.000,32.000 C64.000,49.673 49.673,64.000 32.000,64.000 C14.327,64.000 -0.000,49.673 -0.000,32.000 C-0.000,14.327 14.327,-0.000 32.000,-0.000 Z"/>
<path fill-rule="evenodd"  fill="rgb(255, 255, 255)"
 d="M23.001,20.149 C23.942,18.149 28.003,17.006 28.003,17.006 C24.236,19.864 24.058,23.286 25.000,25.000 L27.000,25.000 L27.000,28.000 L20.000,28.000 L20.000,25.000 L21.588,25.007 L21.588,21.864 C21.353,20.149 18.999,18.720 18.999,18.720 C19.234,18.435 23.001,20.149 23.001,20.149 L23.001,20.149 ZM17.001,36.006 L17.001,31.992 L25.005,31.992 L25.005,36.006 L17.001,36.006 ZM27.003,44.994 L18.999,44.994 L18.999,41.010 L27.003,41.010 L27.003,44.994 ZM28.003,28.998 L36.007,28.998 L36.007,33.012 L28.003,33.012 L28.003,28.998 ZM34.000,44.000 L36.000,44.000 L36.000,47.000 L29.000,47.000 L29.000,44.000 L31.000,44.000 L30.592,41.364 C30.356,39.731 28.002,38.370 28.002,38.370 C28.237,38.097 32.004,40.003 32.004,40.003 C32.946,38.097 37.006,37.008 37.006,37.008 C33.239,39.186 33.294,42.639 34.000,44.000 L34.000,44.000 ZM40.575,21.557 C40.340,19.842 37.986,18.414 37.986,18.414 C38.221,18.128 41.988,20.128 41.988,20.128 C42.930,18.128 46.990,16.985 46.990,16.985 C43.223,19.842 43.058,23.286 44.000,25.000 L46.000,25.000 L46.000,28.000 L39.000,28.000 L39.000,25.000 L41.000,25.000 C40.765,25.000 40.340,23.843 40.575,21.557 L40.575,21.557 ZM47.009,44.994 L39.005,44.994 L39.005,41.010 L47.009,41.010 L47.009,44.994 ZM38.993,35.006 L38.993,30.992 L46.998,30.992 L46.998,35.006 L38.993,35.006 Z"/>
</svg>
