<svg 
 xmlns="http://www.w3.org/2000/svg"
 xmlns:xlink="http://www.w3.org/1999/xlink"
 width="16px" height="19px">
<path fill-rule="evenodd"  fill="rgb(255, 255, 255)"
 d="M14.263,8.880 C14.069,8.891 13.879,8.819 13.738,8.680 C13.597,8.542 13.517,8.350 13.516,8.149 L13.516,2.081 C13.516,1.749 13.256,1.480 12.935,1.480 L2.002,1.480 C1.847,1.479 1.699,1.543 1.590,1.655 C1.481,1.768 1.419,1.922 1.419,2.081 L1.419,16.692 C1.419,17.023 1.680,17.294 2.002,17.294 L6.014,17.294 C6.398,17.294 6.742,17.592 6.760,17.988 C6.771,18.189 6.701,18.385 6.567,18.531 C6.434,18.677 6.248,18.760 6.054,18.761 L6.054,18.762 L1.427,18.762 C0.640,18.761 0.002,18.101 0.002,17.286 L0.002,1.491 C0.002,0.677 0.640,0.014 1.428,0.014 L13.508,0.014 C14.295,0.014 14.935,0.675 14.935,1.491 L14.935,8.106 C14.935,8.504 14.647,8.860 14.263,8.880 ZM3.863,11.828 C3.614,11.828 3.384,11.690 3.259,11.467 C3.135,11.244 3.135,10.969 3.259,10.745 C3.384,10.522 3.614,10.384 3.863,10.384 L6.754,10.384 C7.003,10.384 7.233,10.522 7.358,10.745 C7.482,10.969 7.482,11.244 7.358,11.467 C7.233,11.690 7.003,11.828 6.754,11.828 L3.863,11.828 ZM11.004,5.444 L3.863,5.444 C3.614,5.444 3.384,5.307 3.259,5.083 C3.135,4.860 3.135,4.585 3.259,4.362 C3.384,4.138 3.614,4.001 3.863,4.001 L11.004,4.001 C11.390,4.001 11.702,4.324 11.702,4.723 C11.702,5.121 11.390,5.444 11.004,5.444 ZM11.004,8.636 L3.863,8.636 C3.478,8.636 3.166,8.313 3.166,7.914 C3.166,7.516 3.478,7.193 3.863,7.193 L11.004,7.193 C11.390,7.193 11.702,7.516 11.702,7.914 C11.702,8.313 11.390,8.636 11.004,8.636 ZM9.742,15.217 C8.800,14.333 8.481,12.940 8.939,11.712 C9.529,10.134 11.206,9.306 12.762,9.826 C13.327,10.009 13.834,10.368 14.202,10.848 C15.229,12.163 15.087,14.080 13.878,15.217 C15.134,15.954 15.935,17.309 15.998,18.802 C15.999,18.850 15.982,18.897 15.950,18.932 C15.918,18.966 15.873,18.986 15.827,18.986 L14.798,18.986 C14.706,18.986 14.631,18.912 14.627,18.817 C14.538,17.273 13.303,16.067 11.808,16.066 C10.315,16.068 9.080,17.273 8.991,18.816 C8.987,18.910 8.912,18.985 8.820,18.986 L7.792,18.986 C7.746,18.985 7.702,18.965 7.670,18.931 C7.638,18.896 7.621,18.850 7.622,18.802 C7.686,17.309 8.487,15.956 9.742,15.217 ZM10.612,14.021 C11.025,14.507 11.661,14.720 12.271,14.578 C12.793,14.440 13.222,14.056 13.430,13.542 C13.637,13.027 13.599,12.442 13.327,11.960 C13.011,11.406 12.430,11.074 11.808,11.091 L11.808,11.090 L11.638,11.103 C11.020,11.201 10.503,11.640 10.289,12.248 C10.075,12.856 10.199,13.536 10.612,14.021 Z"/>
</svg>
