<svg 
 xmlns="http://www.w3.org/2000/svg"
 xmlns:xlink="http://www.w3.org/1999/xlink"
 width="14px" height="14px">
<path fill-rule="evenodd"  fill="rgb(255, 255, 255)"
 d="M10.308,7.001 L4.703,7.001 C4.310,6.945 4.013,6.517 4.013,6.007 C4.013,5.497 4.310,5.069 4.703,5.014 L10.308,5.014 C10.701,5.069 10.999,5.497 10.999,6.007 C10.999,6.517 10.701,6.945 10.308,7.001 L10.308,7.001 ZM10.308,10.999 L4.703,10.999 C4.310,10.944 4.013,10.516 4.013,10.006 C4.013,9.496 4.310,9.068 4.703,9.013 L10.308,9.013 C10.701,9.068 10.999,9.496 10.999,10.006 C10.999,10.516 10.701,10.944 10.308,10.999 L10.308,10.999 ZM14.000,13.000 L14.000,3.000 C14.000,1.836 13.000,2.000 13.000,2.000 L8.000,2.000 C7.818,2.001 7.081,2.005 6.938,1.892 C6.795,1.779 6.706,1.461 6.282,0.771 C5.896,-0.005 5.000,-0.000 5.000,-0.000 L1.000,-0.000 C-0.196,-0.000 -0.005,1.375 -0.005,1.375 L-0.005,12.759 C-0.005,14.182 0.959,14.009 0.959,14.009 L12.994,14.009 C13.997,14.008 14.000,13.000 14.000,13.000 L14.000,13.000 Z"/>
</svg>
