<svg 
 xmlns="http://www.w3.org/2000/svg"
 xmlns:xlink="http://www.w3.org/1999/xlink"
 width="14px" height="14px">
<path fill-rule="evenodd"  fill="rgb(255, 255, 255)"
 d="M11.667,13.984 L2.390,13.984 C1.037,13.984 0.006,12.894 0.006,11.613 L0.006,2.385 C0.006,1.039 1.101,0.014 2.390,0.014 L11.602,0.014 C12.955,0.014 13.986,1.103 13.986,2.385 L13.986,11.549 C14.050,12.894 12.955,13.984 11.667,13.984 L11.667,13.984 ZM4.516,11.997 L8.510,11.997 C8.768,11.997 9.025,11.805 9.025,11.485 C9.025,11.164 8.832,10.972 8.510,10.972 L4.516,10.972 C4.258,10.972 4.000,11.164 4.000,11.485 C4.000,11.805 4.258,11.997 4.516,11.997 L4.516,11.997 ZM11.731,3.282 C11.345,2.962 10.829,2.898 10.507,3.218 L6.577,6.871 L4.580,5.012 C4.258,4.692 3.678,4.756 3.356,5.076 C2.970,5.397 2.970,5.910 3.292,6.230 L5.933,8.729 L5.997,8.793 C6.126,8.921 6.320,8.985 6.513,8.985 L6.642,8.985 C6.835,8.985 7.028,8.921 7.157,8.793 L7.222,8.729 L11.796,4.436 C12.118,4.115 12.118,3.603 11.731,3.282 L11.731,3.282 Z"/>
</svg>
