<svg 
 xmlns="http://www.w3.org/2000/svg"
 xmlns:xlink="http://www.w3.org/1999/xlink"
 width="20px" height="16px">
<path fill-rule="evenodd"  fill="rgb(255, 255, 255)"
 d="M3.533,5.199 C3.533,3.936 4.562,2.908 5.827,2.908 C7.091,2.908 8.120,3.936 8.120,5.199 C8.120,6.463 7.091,7.490 5.827,7.490 C4.562,7.490 3.533,6.463 3.533,5.199 ZM6.809,5.199 C6.809,4.658 6.368,4.217 5.827,4.217 C5.285,4.217 4.844,4.658 4.844,5.199 C4.844,5.741 5.285,6.181 5.827,6.181 C6.368,6.181 6.809,5.741 6.809,5.199 ZM9.185,7.641 L13.141,10.922 L18.104,5.041 C18.281,4.832 18.571,4.755 18.829,4.848 C19.087,4.942 19.260,5.189 19.260,5.464 L19.260,15.346 C19.260,15.708 18.966,16.001 18.604,16.001 L1.567,16.001 C1.205,16.001 0.912,15.708 0.912,15.346 L0.912,0.944 C0.912,0.582 1.205,0.289 1.567,0.289 L18.604,0.289 C18.966,0.289 19.260,0.582 19.260,0.944 L19.260,3.335 C19.260,3.696 18.966,3.989 18.604,3.989 C18.242,3.989 17.949,3.696 17.949,3.335 L17.949,1.598 L2.223,1.598 L2.223,14.692 L17.949,14.692 L17.949,7.256 L13.724,12.263 C13.492,12.538 13.081,12.575 12.805,12.345 L8.790,9.015 L4.804,12.702 C4.632,12.861 4.388,12.916 4.165,12.847 C3.941,12.778 3.772,12.595 3.720,12.367 C3.668,12.139 3.742,11.901 3.914,11.742 L8.321,7.665 C8.563,7.442 8.932,7.431 9.185,7.641 Z"/>
</svg>
