<svg 
 xmlns="http://www.w3.org/2000/svg"
 xmlns:xlink="http://www.w3.org/1999/xlink"
 width="19px" height="19px">
<path fill-rule="evenodd"  fill="rgb(255, 255, 255)"
 d="M16.513,0.970 C17.692,0.970 18.666,1.889 18.736,3.065 L18.740,3.196 L18.740,13.575 C18.740,14.754 17.821,15.729 16.644,15.798 L16.513,15.802 L10.317,15.802 L10.317,17.389 L13.222,17.390 C13.596,17.390 13.900,17.693 13.900,18.067 L13.900,18.551 C13.900,18.658 13.813,18.745 13.706,18.745 L5.575,18.745 C5.468,18.745 5.381,18.658 5.381,18.551 L5.381,18.067 C5.381,17.693 5.685,17.390 6.059,17.390 L8.962,17.389 L8.963,15.124 C8.963,14.779 9.221,14.494 9.555,14.452 L9.640,14.446 L16.513,14.446 C16.962,14.446 17.332,14.106 17.379,13.670 L17.384,13.575 L17.384,3.196 C17.384,2.747 17.044,2.378 16.608,2.331 L16.513,2.325 L2.768,2.325 C2.318,2.325 1.949,2.665 1.902,3.101 L1.896,3.196 L1.896,13.575 C1.896,14.024 2.236,14.394 2.672,14.441 L2.768,14.446 L6.945,14.446 C7.303,14.447 7.599,14.725 7.621,15.081 C7.644,15.438 7.385,15.751 7.031,15.796 L6.945,15.802 L2.768,15.802 C1.589,15.802 0.614,14.883 0.545,13.706 L0.541,13.575 L0.541,3.196 C0.541,2.017 1.460,1.043 2.637,0.974 L2.768,0.970 L16.513,0.970 ZM14.509,11.881 L11.846,9.602 C12.369,8.921 12.654,8.097 12.654,7.230 C12.654,6.174 12.234,5.181 11.471,4.435 C10.708,3.688 9.693,3.277 8.616,3.277 C7.539,3.277 6.521,3.688 5.758,4.434 C4.994,5.181 4.575,6.174 4.575,7.228 C4.575,8.283 4.994,9.277 5.758,10.023 C6.521,10.770 7.536,11.181 8.613,11.181 C9.496,11.181 10.335,10.905 11.030,10.395 L13.754,12.723 C13.992,12.926 14.354,12.904 14.564,12.668 C14.772,12.439 14.749,12.084 14.509,11.881 L14.509,11.881 ZM5.722,7.230 C5.722,5.669 7.020,4.400 8.613,4.400 C10.206,4.400 11.503,5.670 11.503,7.230 C11.503,8.790 10.206,10.060 8.613,10.060 C7.020,10.060 5.722,8.790 5.722,7.230 L5.722,7.230 Z"/>
</svg>
