<svg 
 xmlns="http://www.w3.org/2000/svg"
 xmlns:xlink="http://www.w3.org/1999/xlink"
 width="19px" height="19px">
<path fill-rule="evenodd"  fill="rgb(255, 255, 255)"
 d="M18.923,10.987 C18.879,11.330 18.607,11.603 18.264,11.650 L16.817,11.847 C16.679,12.281 16.498,12.704 16.282,13.105 L17.141,14.248 C17.347,14.525 17.345,14.909 17.135,15.180 L17.126,15.190 C16.997,15.355 16.649,15.781 16.221,16.209 L16.142,16.287 C15.718,16.711 15.289,17.60 15.124,17.189 C15.117,17.193 15.115,17.196 15.113,17.198 C14.837,17.409 14.451,17.412 14.175,17.202 L13.6,16.317 C12.599,16.524 12.173,16.698 11.740,16.829 L11.538,18.252 C11.489,18.595 11.216,18.864 10.872,18.907 C10.866,18.907 10.225,18.989 9.497,18.989 L9.385,18.989 C8.651,18.989 8.14,18.907 8.8,18.907 C7.664,18.862 7.390,18.591 7.344,18.248 L7.144,16.806 C6.716,16.670 6.289,16.490 5.880,16.272 L4.739,17.130 C4.461,17.335 4.77,17.333 3.803,17.124 C3.801,17.121 3.799,17.119 3.792,17.115 C3.629,16.986 3.200,16.639 2.774,16.213 L2.696,16.135 C2.271,15.711 1.921,15.283 1.792,15.118 C1.787,15.112 1.785,15.110 1.783,15.108 C1.571,14.832 1.569,14.447 1.779,14.172 L2.662,13.9 C2.454,12.603 2.280,12.177 2.146,11.741 L0.731,11.540 C0.387,11.491 0.118,11.218 0.75,10.875 C0.75,10.868 0.6,10.235 0.6,9.503 L0.6,9.390 C0.6,8.656 0.75,8.22 0.75,8.16 C0.120,7.673 0.391,7.400 0.735,7.353 L2.184,7.154 C2.322,6.722 2.502,6.299 2.719,5.894 L1.855,4.747 C1.650,4.471 1.652,4.88 1.862,3.813 C1.864,3.809 1.868,3.807 1.872,3.800 C2.2,3.635 2.352,3.207 2.776,2.784 L2.855,2.705 C3.279,2.282 3.707,1.933 3.873,1.803 C3.879,1.799 3.882,1.797 3.884,1.795 C4.159,1.583 4.545,1.581 4.821,1.791 L5.990,2.678 C6.396,2.470 6.822,2.297 7.257,2.165 L7.458,0.747 C7.507,0.404 7.781,0.135 8.125,0.92 C8.129,0.92 8.767,0.10 9.499,0.10 L9.612,0.10 C10.348,0.10 10.982,0.92 10.989,0.92 C11.332,0.137 11.606,0.408 11.653,0.751 L11.850,2.199 C12.285,2.337 12.707,2.517 13.110,2.731 L14.258,1.871 C14.534,1.666 14.918,1.668 15.194,1.877 C15.198,1.877 15.200,1.882 15.206,1.886 C15.372,2.15 15.800,2.365 16.225,2.788 L16.303,2.866 C16.819,3.383 17.213,3.893 17.218,3.898 C17.430,4.173 17.432,4.558 17.222,4.834 L16.337,5.996 C16.545,6.398 16.719,6.824 16.853,7.262 L18.272,7.464 C18.616,7.512 18.885,7.785 18.928,8.128 C18.928,8.135 19.10,8.768 19.6,9.500 L19.6,9.613 C19.6,10.347 18.923,10.981 18.923,10.987 ZM17.464,9.503 C17.464,9.310 17.457,9.102 17.445,8.903 L16.125,8.717 C15.811,8.670 15.552,8.433 15.482,8.126 C15.340,7.502 15.98,6.904 14.765,6.352 C14.731,6.301 14.704,6.246 14.684,6.189 C14.600,5.945 14.642,5.674 14.799,5.469 L15.618,4.391 C15.472,4.224 15.338,4.82 15.211,3.955 L15.132,3.876 C15.5,3.749 14.863,3.616 14.695,3.468 L13.626,4.268 C13.356,4.469 12.979,4.474 12.709,4.275 C12.164,3.942 11.578,3.696 10.970,3.548 C10.662,3.472 10.433,3.220 10.390,2.907 L10.206,1.566 C10.30,1.558 9.824,1.547 9.610,1.547 L9.497,1.547 C9.302,1.547 9.96,1.554 8.897,1.566 L8.710,2.888 C8.661,3.226 8.402,3.487 8.65,3.540 C7.450,3.686 6.862,3.927 6.321,4.253 C6.145,4.361 5.929,4.393 5.727,4.340 C5.617,4.311 5.515,4.260 5.424,4.183 L4.378,3.394 C4.208,3.544 4.68,3.673 3.941,3.800 L3.860,3.879 C3.733,4.6 3.597,4.150 3.451,4.315 L4.253,5.382 C4.439,5.630 4.456,5.975 4.295,6.242 C4.280,6.265 4.265,6.286 4.251,6.305 C3.922,6.841 3.678,7.423 3.527,8.31 C3.451,8.338 3.198,8.567 2.884,8.609 L1.546,8.793 C1.533,8.990 1.527,9.196 1.527,9.388 L1.527,9.503 C1.527,9.695 1.533,9.903 1.546,10.102 L2.870,10.288 C3.213,10.337 3.476,10.599 3.525,10.940 C3.525,10.947 3.527,10.951 3.527,10.957 C3.529,10.962 3.529,10.966 3.529,10.968 C3.676,11.565 3.913,12.141 4.236,12.675 C4.352,12.867 4.378,13.100 4.306,13.316 C4.274,13.407 4.227,13.492 4.164,13.568 L3.374,14.610 C3.476,14.722 3.620,14.883 3.784,15.44 L3.864,15.125 C3.996,15.254 4.134,15.385 4.304,15.533 L5.373,14.733 C5.657,14.521 6.58,14.530 6.330,14.756 C6.856,15.76 7.427,15.313 8.27,15.459 C8.335,15.535 8.564,15.787 8.606,16.101 L8.793,17.435 C8.990,17.448 9.196,17.454 9.389,17.454 L9.501,17.454 C9.695,17.454 9.902,17.448 10.102,17.435 L10.293,16.111 C10.337,15.800 10.575,15.542 10.883,15.470 C11.519,15.324 12.124,15.80 12.677,14.743 C12.856,14.638 13.62,14.606 13.263,14.655 C13.373,14.682 13.479,14.735 13.571,14.809 L14.623,15.607 C14.791,15.461 14.933,15.328 15.60,15.201 L15.138,15.123 C15.289,14.974 15.429,14.820 15.548,14.686 L14.748,13.623 C14.557,13.371 14.542,13.22 14.710,12.753 C15.49,12.213 15.300,11.629 15.448,11.21 C15.508,10.688 15.769,10.436 16.102,10.392 L17.445,10.208 C17.453,10.41 17.464,9.829 17.464,9.613 L17.464,9.503 ZM9.501,13.507 C7.291,13.507 5.492,11.711 5.492,9.505 C5.492,7.298 7.291,5.503 9.501,5.503 C11.714,5.503 13.513,7.298 13.511,9.505 C13.511,11.711 11.712,13.507 9.501,13.507 ZM9.504,7.42 C8.144,7.42 7.36,8.145 7.36,9.505 C7.36,10.862 8.142,11.967 9.504,11.967 C10.864,11.967 11.971,10.864 11.971,9.505 C11.971,8.147 10.864,7.42 9.504,7.42 Z"/>
</svg>
