<svg 
 xmlns="http://www.w3.org/2000/svg"
 xmlns:xlink="http://www.w3.org/1999/xlink"
 width="17px" height="16px">
<path fill-rule="evenodd"
 d="M14.573,13.409 C13.360,14.727 13.080,15.272 12.613,15.999 C12.566,15.954 11.866,14.636 10.000,13.682 L10.980,12.773 C10.980,12.773 11.866,13.363 12.473,14.454 C12.473,14.454 14.013,12.136 17.000,11.000 L17.000,11.591 C17.000,11.591 15.880,11.955 14.573,13.409 ZM8.022,14.664 C8.022,15.473 8.247,16.001 7.520,16.001 L2.493,16.001 C1.127,16.001 -0.001,14.887 -0.001,13.538 L-0.001,2.462 C-0.001,1.113 1.114,-0.001 2.493,-0.001 L12.510,-0.001 C13.876,-0.001 15.005,1.113 15.005,2.462 L15.005,9.231 C15.005,9.231 8.111,8.072 8.022,14.664 ZM3.978,12.000 L5.984,12.000 C6.546,12.000 6.987,11.782 6.987,11.505 C6.987,11.228 6.546,11.010 5.984,11.010 L3.978,11.010 C3.417,11.010 2.975,11.228 2.975,11.505 C2.975,11.782 3.417,12.000 3.978,12.000 ZM11.255,4.010 L3.749,4.010 C3.327,4.010 2.996,4.227 2.996,4.505 C2.996,4.782 3.327,5.000 3.749,5.000 L11.255,5.000 C11.677,5.000 12.008,4.782 12.008,4.505 C12.008,4.227 11.677,4.010 11.255,4.010 ZM11.255,7.010 L3.749,7.010 C3.327,7.010 2.996,7.228 2.996,7.505 C2.996,7.782 3.327,8.000 3.749,8.000 L11.255,8.000 C11.677,8.000 12.008,7.782 12.008,7.505 C12.008,7.228 11.677,7.010 11.255,7.010 Z"/>
</svg>
