<svg 
 xmlns="http://www.w3.org/2000/svg"
 xmlns:xlink="http://www.w3.org/1999/xlink"
 width="18px" height="19px">
<path fill-rule="evenodd"  fill="rgb(255, 255, 255)"
 d="M9.639,9.688 L7.764,7.801 L5.481,10.192 C5.358,10.323 5.187,10.397 5.010,10.396 C4.842,10.396 4.675,10.332 4.547,10.203 C4.285,9.940 4.281,9.510 4.537,9.242 L6.891,6.774 C7.361,6.282 8.134,6.274 8.614,6.756 L10.489,8.642 L12.517,6.524 C12.774,6.257 13.193,6.254 13.453,6.516 C13.713,6.779 13.717,7.209 13.461,7.477 L11.360,9.672 C10.890,10.163 10.118,10.170 9.639,9.688 ZM17.338,8.151 C16.974,8.151 16.677,7.848 16.676,7.472 L16.676,4.502 C16.676,3.311 15.732,2.342 14.572,2.342 L3.426,2.342 C2.267,2.342 1.323,3.311 1.323,4.502 L1.323,12.080 C1.323,13.271 2.267,14.240 3.426,14.240 L14.572,14.240 C15.732,14.240 16.676,13.271 16.676,12.080 C16.676,11.705 16.972,11.400 17.337,11.400 C17.702,11.400 17.999,11.705 17.999,12.080 C17.999,14.020 16.462,15.598 14.572,15.598 L3.426,15.598 C1.537,15.598 0.000,14.020 0.000,12.080 L0.000,4.502 C0.000,2.561 1.537,0.983 3.426,0.983 L14.573,0.983 C16.463,0.983 18.000,2.561 18.000,4.502 L18.000,7.472 C18.000,7.847 17.703,8.151 17.338,8.151 ZM4.102,16.658 L13.898,16.658 C14.263,16.658 14.559,16.963 14.559,17.337 C14.559,17.712 14.263,18.017 13.898,18.017 L4.102,18.017 C3.737,18.017 3.441,17.712 3.441,17.337 C3.441,16.963 3.737,16.658 4.102,16.658 Z"/>
</svg>
