<svg 
 xmlns="http://www.w3.org/2000/svg"
 xmlns:xlink="http://www.w3.org/1999/xlink"
 width="48px" height="48px">
<path fill-rule="evenodd"  fill="rgb(20, 95, 180)"
 d="M24.000,-0.000 C37.255,-0.000 48.000,10.745 48.000,24.000 C48.000,37.255 37.255,48.000 24.000,48.000 C10.745,48.000 -0.000,37.255 -0.000,24.000 C-0.000,10.745 10.745,-0.000 24.000,-0.000 Z"/>
<path fill-rule="evenodd"  fill="rgb(236, 244, 252)"
 d="M35.668,35.298 C35.327,35.730 34.779,35.987 34.196,35.987 L25.821,35.987 C25.580,35.987 25.349,35.900 25.179,35.744 C25.008,35.589 24.913,35.378 24.913,35.158 L24.913,31.841 C24.913,31.621 25.008,31.410 25.179,31.254 C25.349,31.099 25.580,31.011 25.821,31.011 L34.245,31.011 C34.635,31.011 34.982,31.240 35.105,31.579 L35.917,33.804 C36.101,34.309 36.009,34.865 35.668,35.298 ZM29.500,21.023 L26.086,20.991 C25.626,20.991 25.000,21.498 25.000,22.000 L25.000,23.007 L30.432,23.007 C31.648,23.007 32.728,23.834 33.113,25.060 L33.940,27.695 C34.035,28.000 33.987,28.335 33.810,28.596 C33.633,28.857 33.349,29.012 33.046,29.012 L14.932,29.012 C14.629,29.012 14.345,28.857 14.168,28.596 C13.991,28.335 13.943,28.000 14.038,27.695 L14.865,25.060 C15.250,23.834 16.330,23.007 17.546,23.007 L23.000,23.007 L23.000,22.000 C23.000,21.498 22.383,20.991 21.923,20.991 L18.510,21.023 C15.475,21.023 13.015,18.598 13.015,15.608 L13.015,12.901 C13.015,12.402 13.425,11.998 13.931,11.998 L18.510,11.998 C21.361,11.998 23.738,14.145 23.985,16.943 C23.985,16.953 23.994,16.962 24.005,16.962 C24.015,16.962 24.024,16.954 24.025,16.943 C24.272,14.145 26.650,11.998 29.500,11.998 L34.079,11.998 C34.585,11.998 34.995,12.402 34.995,12.901 L34.995,15.608 C34.995,18.598 32.535,21.023 29.500,21.023 ZM13.765,31.011 L22.190,31.011 C22.430,31.011 22.661,31.099 22.831,31.254 C23.002,31.410 23.097,31.621 23.097,31.841 L23.097,35.158 C23.097,35.378 23.002,35.589 22.831,35.744 C22.661,35.900 22.430,35.987 22.190,35.987 L13.815,35.987 C13.231,35.987 12.683,35.731 12.342,35.298 C12.000,34.866 11.908,34.309 12.092,33.804 L12.905,31.579 C13.028,31.240 13.375,31.011 13.765,31.011 Z"/>
</svg>
