<svg 
 xmlns="http://www.w3.org/2000/svg"
 xmlns:xlink="http://www.w3.org/1999/xlink"
 width="48px" height="48px">
<path fill-rule="evenodd"  fill="rgb(163, 180, 20)"
 d="M24.000,-0.000 C37.255,-0.000 48.000,10.745 48.000,24.000 C48.000,37.255 37.255,48.000 24.000,48.000 C10.745,48.000 -0.000,37.255 -0.000,24.000 C-0.000,10.745 10.745,-0.000 24.000,-0.000 Z"/>
<path fill-rule="evenodd"  fill="rgb(246, 247, 231)"
 d="M33.350,13.938 C33.350,13.938 34.352,11.901 34.922,13.938 C34.922,13.938 38.498,21.432 32.422,29.652 C29.532,33.487 23.602,34.822 19.519,32.183 C18.157,31.304 17.569,30.288 17.569,30.288 C17.569,30.288 16.708,30.859 15.724,32.008 C14.785,33.106 14.282,35.000 13.119,34.949 C12.825,34.949 12.545,34.823 12.347,34.601 C11.874,34.045 11.957,33.391 12.234,32.793 C12.659,31.874 13.746,29.913 15.919,28.080 C19.569,25.002 23.551,24.123 28.132,24.017 C28.867,24.002 28.850,22.762 27.882,22.733 C27.882,22.733 21.483,22.140 16.211,26.196 C14.895,21.500 19.489,17.679 23.859,17.238 C26.195,17.002 28.073,17.569 30.223,16.664 C31.213,16.248 32.601,15.562 33.350,13.938 L33.350,13.938 Z"/>
</svg>
