<svg 
 xmlns="http://www.w3.org/2000/svg"
 xmlns:xlink="http://www.w3.org/1999/xlink"
 width="20px" height="19px">
<path fill-rule="evenodd"  fill="rgb(255, 255, 255)"
 d="M16.978,0.969 C18.175,0.969 19.165,1.901 19.235,3.095 L19.239,3.228 L19.239,13.755 C19.239,14.951 18.306,15.940 17.111,16.010 L16.978,16.014 L10.687,16.014 L10.687,17.624 L13.637,17.625 C14.016,17.625 14.325,17.933 14.325,18.312 L14.325,18.803 C14.325,18.912 14.237,19.000 14.128,19.000 L5.872,19.000 C5.763,19.000 5.675,18.912 5.675,18.803 L5.675,18.312 C5.675,17.933 5.983,17.625 6.363,17.625 L9.311,17.624 L9.312,15.327 C9.312,14.976 9.574,14.687 9.913,14.645 L10.000,14.639 L16.978,14.639 C17.435,14.639 17.810,14.294 17.858,13.852 L17.863,13.755 L17.863,3.228 C17.863,2.772 17.518,2.397 17.075,2.349 L16.978,2.344 L3.021,2.344 C2.565,2.344 2.190,2.689 2.142,3.131 L2.137,3.228 L2.137,13.755 C2.137,14.211 2.482,14.586 2.925,14.634 L3.021,14.639 L7.264,14.639 C7.627,14.639 7.927,14.921 7.950,15.284 C7.973,15.645 7.710,15.963 7.350,16.009 L7.264,16.014 L3.021,16.014 C1.824,16.014 0.835,15.082 0.765,13.888 L0.761,13.755 L0.761,3.228 C0.761,2.032 1.694,1.043 2.888,0.973 L3.021,0.969 L16.978,0.969 ZM15.291,5.172 C15.671,5.172 15.979,5.479 15.979,5.859 L15.978,8.504 C15.978,9.220 15.429,9.816 14.715,9.874 L14.602,9.879 L14.602,7.693 L11.175,11.117 C10.930,11.362 10.541,11.387 10.267,11.175 L10.202,11.117 L7.786,8.703 L5.370,11.117 C5.125,11.362 4.736,11.387 4.462,11.175 L4.397,11.117 C4.152,10.872 4.128,10.484 4.340,10.210 L4.397,10.145 L7.300,7.246 C7.545,7.001 7.934,6.976 8.208,7.188 L8.273,7.245 L10.689,9.658 L13.803,6.546 L11.268,6.548 C11.268,5.788 11.884,5.173 12.644,5.173 L15.291,5.172 Z"/>
</svg>
