<svg 
 xmlns="http://www.w3.org/2000/svg"
 xmlns:xlink="http://www.w3.org/1999/xlink"
 width="48px" height="48px">
<path fill-rule="evenodd"  fill="rgb(0, 128, 0)"
 d="M24.000,-0.000 C37.255,-0.000 48.000,10.745 48.000,24.000 C48.000,37.255 37.255,48.000 24.000,48.000 C10.745,48.000 -0.000,37.255 -0.000,24.000 C-0.000,10.745 10.745,-0.000 24.000,-0.000 Z"/>
<path fill-rule="evenodd"  fill="rgb(232, 249, 247)"
 d="M28.508,24.051 C28.457,23.775 28.270,23.547 28.017,23.454 L24.928,22.341 C24.661,22.245 24.365,22.311 24.158,22.513 L21.271,25.357 C21.077,25.548 20.991,25.830 21.042,26.103 C21.093,26.377 21.274,26.604 21.521,26.704 L25.139,28.141 L25.234,28.141 C24.817,29.678 24.954,31.322 25.621,32.758 C20.443,31.523 12.272,27.838 12.051,25.904 C11.406,20.387 19.567,14.637 23.138,14.060 C26.420,13.462 35.601,16.236 35.890,18.524 C36.005,19.435 35.447,21.824 34.484,24.406 C32.683,23.213 30.425,23.079 28.508,24.051 ZM18.403,20.397 L15.515,23.029 C15.307,23.215 15.208,23.504 15.255,23.787 C15.303,24.070 15.490,24.306 15.746,24.406 L18.277,25.418 L18.268,25.388 C18.542,25.498 18.851,25.435 19.067,25.226 L21.886,22.472 C22.088,22.278 22.177,21.986 22.119,21.705 C22.062,21.424 21.867,21.195 21.607,21.106 L19.163,20.225 C18.899,20.133 18.608,20.199 18.403,20.397 ZM25.900,16.874 L23.696,16.145 C23.439,16.059 23.158,16.120 22.955,16.307 L21.165,17.927 L21.165,17.896 C20.956,18.081 20.855,18.368 20.901,18.651 C20.946,18.934 21.131,19.171 21.386,19.273 L23.677,20.103 C23.944,20.199 24.239,20.133 24.447,19.931 L26.189,18.241 C26.390,18.045 26.477,17.752 26.418,17.470 C26.358,17.188 26.161,16.961 25.900,16.874 ZM32.089,19.331 C32.018,19.074 31.830,18.870 31.588,18.787 L29.345,18.028 C29.081,17.937 28.790,18.002 28.585,18.200 L26.785,19.952 C26.583,20.144 26.493,20.435 26.549,20.716 C26.604,20.997 26.796,21.226 27.055,21.318 L29.605,22.239 C29.910,22.350 30.248,22.249 30.452,21.986 L31.944,20.073 C32.106,19.866 32.160,19.588 32.089,19.331 ZM25.236,28.141 L25.234,28.141 C25.235,28.138 25.235,28.135 25.236,28.131 L25.236,28.141 ZM33.965,25.813 C35.245,26.747 36.008,28.284 36.005,29.923 C36.017,32.259 34.508,34.300 32.352,34.863 C30.197,35.426 27.956,34.364 26.928,32.294 C25.900,30.223 26.352,27.681 28.023,26.142 C29.694,24.604 32.149,24.467 33.965,25.813 ZM28.594,29.933 C28.594,31.023 29.070,32.053 29.884,32.727 C30.295,33.087 30.760,33.371 31.260,33.568 L31.491,33.568 C31.597,33.527 34.157,32.586 34.157,29.933 L34.148,28.546 C34.149,28.403 34.070,28.272 33.946,28.212 L33.099,27.807 L31.520,27.048 C31.473,27.037 31.423,27.037 31.376,27.048 C31.328,27.037 31.279,27.037 31.232,27.048 L28.797,28.212 C28.673,28.272 28.593,28.403 28.594,28.546 L28.594,29.933 Z"/>
</svg>
