<svg 
 xmlns="http://www.w3.org/2000/svg"
 xmlns:xlink="http://www.w3.org/1999/xlink"
 width="64px" height="64px">
<path fill-rule="evenodd" fill="rgb(69, 150, 222)"
 d="M32.000,-0.000 C49.673,-0.000 64.000,14.327 64.000,32.000 C64.000,49.673 49.673,64.000 32.000,64.000 C14.327,64.000 -0.000,49.673 -0.000,32.000 C-0.000,14.327 14.327,-0.000 32.000,-0.000 Z"/>
<path fill-rule="evenodd"  fill="rgb(255, 255, 255)"
 d="M41.670,46.012 C38.645,46.650 35.584,45.096 34.322,42.282 C33.061,39.469 33.942,36.159 36.436,34.338 C38.931,32.518 42.362,32.680 44.672,34.728 C46.071,35.979 46.872,37.763 46.872,39.636 C46.862,42.718 44.694,45.374 41.670,46.012 ZM43.961,40.599 C44.411,38.768 43.470,36.881 41.734,36.133 C41.632,35.368 40.978,34.797 40.205,34.797 C39.431,34.797 38.777,35.368 38.675,36.133 C36.968,36.887 36.043,38.748 36.475,40.559 C35.924,40.836 35.592,41.413 35.630,42.027 C35.668,42.641 36.069,43.173 36.650,43.380 C37.231,43.587 37.879,43.430 38.299,42.979 C39.499,43.670 40.977,43.670 42.177,42.979 C42.595,43.439 43.249,43.603 43.835,43.395 C44.422,43.188 44.826,42.649 44.860,42.030 L44.846,41.936 C44.823,41.361 44.482,40.847 43.961,40.599 ZM42.033,41.082 C41.778,41.428 41.679,41.863 41.761,42.284 C40.791,42.868 39.577,42.868 38.608,42.284 C38.689,41.863 38.591,41.428 38.336,41.082 C38.081,40.737 37.694,40.513 37.266,40.465 C36.904,39.097 37.538,37.660 38.796,37.002 C39.044,37.556 39.596,37.912 40.205,37.912 C40.813,37.912 41.365,37.556 41.613,37.002 C42.855,37.672 43.472,39.106 43.102,40.465 C42.675,40.513 42.288,40.737 42.033,41.082 ZM35.828,32.213 C33.182,33.753 31.547,36.569 31.525,39.623 C31.510,42.126 32.587,44.513 34.476,46.162 L29.834,46.162 L32.517,17.411 L40.755,17.411 C42.089,17.421 43.192,18.451 43.290,19.778 L44.417,32.121 C41.738,30.639 38.474,30.674 35.828,32.213 ZM18.297,30.422 L19.276,19.724 C19.400,18.414 20.504,17.412 21.825,17.411 L29.888,17.411 L28.694,30.422 L18.297,30.422 ZM27.272,46.162 L19.665,46.162 C18.946,46.161 18.261,45.859 17.776,45.331 C17.291,44.802 17.052,44.094 17.116,43.380 L18.055,33.097 L28.466,33.097 L27.272,46.162 Z"/>
</svg>
