<svg 
 xmlns="http://www.w3.org/2000/svg"
 xmlns:xlink="http://www.w3.org/1999/xlink"
 width="18px" height="21px">
<path fill-rule="evenodd"  fill="rgb(255, 255, 255)"
 d="M9.168,16.760 C9.183,14.943 10.231,13.299 11.858,12.541 C13.485,11.783 15.397,12.048 16.764,13.221 L16.764,2.293 C16.764,1.143 15.845,0.211 14.712,0.211 L2.054,0.211 C0.921,0.211 0.003,1.143 0.003,2.293 L0.003,19.356 C-0.027,19.932 0.251,20.479 0.731,20.787 C1.235,21.070 1.850,21.056 2.341,20.751 L8.429,17.384 L9.311,17.873 C9.218,17.509 9.170,17.135 9.168,16.760 L9.168,16.760 ZM6.157,6.602 C6.157,6.463 6.211,6.331 6.307,6.233 C6.404,6.136 6.534,6.081 6.670,6.081 L12.589,6.081 C12.725,6.081 12.855,6.136 12.951,6.233 C13.048,6.331 13.102,6.463 13.102,6.602 L13.102,7.283 C13.102,7.421 13.048,7.554 12.951,7.651 C12.855,7.749 12.725,7.804 12.589,7.804 L6.670,7.804 C6.534,7.804 6.404,7.749 6.307,7.651 C6.211,7.554 6.157,7.421 6.157,7.283 L6.157,6.602 ZM4.844,12.180 L4.182,12.180 C4.047,12.180 3.916,12.125 3.820,12.028 C3.724,11.930 3.670,11.798 3.670,11.660 L3.670,11.004 C3.670,10.866 3.724,10.734 3.820,10.636 C3.916,10.538 4.047,10.484 4.182,10.484 L4.844,10.484 C4.980,10.484 5.111,10.538 5.207,10.636 C5.303,10.734 5.357,10.866 5.357,11.004 L5.357,11.660 C5.357,11.798 5.303,11.930 5.207,12.028 C5.111,12.125 4.980,12.180 4.844,12.180 L4.844,12.180 ZM4.844,7.777 L4.182,7.777 C4.047,7.777 3.916,7.723 3.820,7.625 C3.724,7.528 3.670,7.395 3.670,7.257 L3.670,6.596 C3.670,6.458 3.724,6.326 3.820,6.228 C3.916,6.131 4.047,6.076 4.182,6.076 L4.849,6.076 C4.985,6.076 5.116,6.131 5.212,6.228 C5.308,6.326 5.362,6.458 5.362,6.596 L5.362,7.278 C5.362,7.416 5.308,7.548 5.212,7.646 C5.116,7.744 4.985,7.798 4.849,7.798 L4.844,7.777 ZM6.670,12.180 C6.534,12.180 6.404,12.125 6.307,12.028 C6.211,11.930 6.157,11.798 6.157,11.660 L6.157,11.004 C6.157,10.866 6.211,10.734 6.307,10.636 C6.404,10.538 6.534,10.484 6.670,10.484 L12.589,10.484 C12.725,10.484 12.855,10.538 12.951,10.636 C13.048,10.734 13.102,10.866 13.102,11.004 L13.102,11.660 C13.102,11.798 13.048,11.930 12.951,12.028 C12.855,12.125 12.725,12.180 12.589,12.180 L6.670,12.180 ZM13.851,12.789 C11.623,12.820 9.840,14.672 9.860,16.932 C9.881,19.192 11.698,21.011 13.926,21.000 C16.153,20.990 17.953,19.155 17.954,16.895 C17.954,15.796 17.520,14.743 16.749,13.971 C15.977,13.199 14.934,12.774 13.851,12.789 L13.851,12.789 ZM13.297,18.945 L11.055,16.864 L12.081,15.937 L13.317,17.077 L15.671,14.907 L16.697,15.833 L13.297,18.945 Z"/>
</svg>
