<svg 
 xmlns="http://www.w3.org/2000/svg"
 xmlns:xlink="http://www.w3.org/1999/xlink"
 width="20px" height="21px">
<path fill-rule="evenodd"  fill="rgb(255, 255, 255)"
 d="M19.738,12.026 L18.785,13.000 L16.118,10.337 L17.071,9.363 C17.388,9.105 17.832,9.038 18.087,9.299 L19.864,11.053 C20.052,11.313 20.052,11.768 19.738,12.026 ZM4.067,10.853 C3.693,10.853 3.390,11.166 3.390,11.552 C3.390,11.938 3.693,12.250 4.067,12.250 L12.151,12.250 L9.454,14.953 L9.263,15.147 L9.156,15.147 C9.054,15.086 8.935,15.049 8.808,15.049 L4.064,15.049 C3.690,15.049 3.388,15.361 3.388,15.747 C3.388,16.133 3.693,16.445 4.067,16.448 L7.905,16.448 C7.869,16.652 7.805,16.940 7.805,17.031 L7.805,17.095 L6.600,20.798 L0.762,20.798 C0.381,20.862 -0.000,20.407 -0.000,20.019 L-0.000,0.852 C-0.000,0.463 0.316,0.008 0.826,0.072 L5.775,0.008 L16.628,0.008 C17.010,0.008 17.327,0.333 17.327,0.724 L17.327,7.091 L13.588,10.853 L4.067,10.853 ZM14.231,7.002 C14.231,6.616 13.929,6.304 13.555,6.304 L4.067,6.304 C3.693,6.304 3.388,6.616 3.390,7.002 C3.390,7.388 3.693,7.701 4.067,7.701 L13.555,7.701 C13.929,7.701 14.231,7.388 14.231,7.002 ZM9.202,17.355 L9.202,17.291 C9.202,17.161 9.263,17.031 9.328,17.031 L10.533,15.927 L15.737,10.858 L18.406,13.519 L12.061,19.822 C11.996,19.822 11.932,19.952 11.806,19.952 L11.741,19.952 L8.441,20.993 C8.377,20.993 8.251,20.993 8.186,20.929 C8.122,20.862 8.058,20.798 8.122,20.668 L9.202,17.355 Z"/>
</svg>
