<svg 
 xmlns="http://www.w3.org/2000/svg"
 xmlns:xlink="http://www.w3.org/1999/xlink"
 width="20px" height="20px">
<path fill-rule="evenodd"  fill="rgb(255, 255, 255)"
 d="M18.993,19.579 L18.993,19.983 L11.622,19.983 L11.622,19.580 L10.762,19.580 L10.762,18.926 C10.763,17.988 11.532,17.226 12.481,17.226 L14.443,17.226 L14.443,14.719 C13.945,14.499 13.548,14.107 13.330,13.618 C12.854,12.541 13.352,11.287 14.441,10.817 L14.443,10.817 C15.532,10.347 16.799,10.838 17.274,11.915 L17.274,11.918 C17.749,12.994 17.252,14.248 16.163,14.718 L16.161,14.718 L16.161,17.225 L18.124,17.225 C19.070,17.225 19.841,17.988 19.853,18.925 L19.853,19.579 L18.993,19.579 ZM16.471,16.475 L16.471,15.405 C17.956,14.739 18.632,13.196 17.987,11.660 C17.341,10.124 15.614,9.427 14.129,10.094 C12.644,10.761 11.968,12.544 12.613,14.079 C12.909,14.772 13.449,15.091 14.129,15.405 L14.129,16.475 L11.869,16.475 C10.762,16.475 9.939,17.618 9.939,18.894 L9.939,19.999 L2.530,19.999 C1.622,19.999 0.884,19.254 0.884,18.335 L0.884,1.694 C0.884,0.775 1.622,0.030 2.530,0.030 L5.551,0.030 L5.551,1.819 C5.552,2.224 5.889,2.552 6.304,2.553 C6.720,2.552 7.056,2.224 7.057,1.819 L7.057,0.030 L13.909,0.030 L13.909,1.819 C13.901,2.086 14.043,2.336 14.279,2.472 C14.515,2.608 14.809,2.608 15.045,2.472 C15.281,2.336 15.423,2.086 15.415,1.819 L15.415,0.030 L18.171,0.030 C19.080,0.030 19.818,0.775 19.818,1.694 L19.818,16.742 C19.616,16.575 19.388,16.475 19.142,16.475 L16.471,16.475 ZM5.211,14.669 L8.307,14.669 C8.782,14.669 9.168,14.346 9.168,13.945 C9.168,13.544 8.781,13.221 8.307,13.221 L5.211,13.221 C4.736,13.221 4.350,13.544 4.350,13.945 C4.350,14.346 4.737,14.669 5.211,14.669 ZM5.211,10.638 L11.756,10.636 C12.231,10.636 12.617,10.314 12.617,9.913 C12.617,9.511 12.230,9.189 11.756,9.189 L5.211,9.189 C4.737,9.189 4.350,9.513 4.350,9.914 C4.350,10.314 4.737,10.638 5.211,10.638 ZM15.194,4.991 L5.211,4.991 C4.737,4.991 4.350,5.314 4.350,5.715 C4.350,6.116 4.737,6.439 5.211,6.439 L15.194,6.439 C15.669,6.439 16.054,6.116 16.054,5.715 C16.054,5.314 15.668,4.991 15.194,4.991 Z"/>
</svg>
