<svg 
 xmlns="http://www.w3.org/2000/svg"
 xmlns:xlink="http://www.w3.org/1999/xlink"
 width="70px" height="47px">
<path fill-rule="evenodd"  fill="rgb(0, 0, 0)"
 d="M35.146,0.331 C35.146,4.493 36.542,7.410 36.542,12.238 C36.542,14.291 34.997,15.142 34.685,16.974 C34.531,17.876 34.533,19.041 34.436,19.991 C34.332,21.016 34.252,22.041 34.101,22.976 C33.774,25.001 33.337,26.367 32.434,27.937 C31.409,29.721 30.779,30.280 29.471,31.606 C28.740,32.346 27.778,32.805 27.586,33.011 C27.399,33.212 27.147,35.370 27.053,35.816 C26.657,37.683 26.100,39.175 25.349,40.732 C24.677,42.127 23.410,44.057 24.810,45.422 C25.569,46.163 25.808,46.204 27.039,46.501 C29.004,46.974 29.269,47.001 31.069,47.001 C34.948,47.001 35.859,42.312 36.949,39.630 C37.408,38.502 37.749,37.497 38.174,36.372 C38.977,34.245 39.728,31.900 41.195,30.565 C42.506,29.373 45.363,28.703 45.363,25.812 L45.363,23.609 C45.363,21.124 44.881,18.364 44.638,15.985 C44.447,14.120 43.500,10.934 42.863,9.352 C41.837,6.800 40.518,4.809 38.856,2.844 C38.482,2.402 38.193,2.198 37.801,1.805 C37.550,1.554 35.723,-0.000 35.389,-0.000 C35.203,-0.000 35.146,0.124 35.146,0.331 L35.146,0.331 ZM25.320,34.266 C25.320,35.483 23.729,36.668 22.303,36.247 C21.091,35.888 19.348,33.920 20.213,33.920 C21.971,33.920 21.665,34.170 23.164,34.509 C24.653,34.844 25.320,33.661 25.320,34.266 L25.320,34.266 ZM24.705,26.228 C24.705,25.993 25.826,23.495 27.059,24.436 C27.628,24.871 28.558,26.441 28.558,27.479 C28.558,28.220 27.102,29.431 26.691,29.431 C26.316,29.431 26.275,29.037 26.090,28.672 C25.949,28.394 25.767,28.205 25.579,27.928 C25.329,27.558 24.705,26.735 24.705,26.228 L24.705,26.228 ZM16.275,27.300 C16.275,28.000 16.795,28.349 17.303,28.699 C17.740,29.001 18.368,29.569 18.846,29.099 C19.168,28.781 20.742,26.774 20.742,26.228 L20.742,25.871 C20.742,25.382 19.457,24.054 18.474,24.054 C18.099,24.054 17.662,25.304 17.367,25.667 C17.112,25.981 16.275,26.740 16.275,27.300 L16.275,27.300 ZM10.915,11.881 C10.915,12.921 11.418,13.618 11.914,14.224 C12.301,14.697 13.030,15.692 13.455,15.965 C14.446,16.601 14.999,16.356 15.680,15.655 C16.005,15.320 16.833,14.130 16.833,13.548 L16.833,12.595 C16.833,11.879 14.476,9.398 13.981,8.895 C12.781,7.676 10.915,10.463 10.915,11.881 L10.915,11.881 ZM26.939,12.178 C26.939,10.866 28.854,8.785 29.650,8.268 C30.603,7.649 31.150,8.217 31.609,8.966 C31.928,9.487 32.466,10.600 32.466,11.404 C32.466,12.611 32.327,13.638 31.508,14.639 C30.867,15.422 30.678,15.649 29.677,16.217 C29.030,16.584 29.037,16.250 28.676,15.866 C28.347,15.516 28.240,15.303 27.956,14.852 C27.421,14.003 26.939,13.274 26.939,12.178 L26.939,12.178 ZM10.748,21.525 L10.748,19.739 C10.748,19.548 10.803,19.576 10.803,19.084 C10.803,18.475 10.383,19.557 10.355,19.669 C9.706,22.251 10.432,25.194 9.344,28.480 C8.400,31.333 7.231,33.970 5.250,35.608 C4.723,36.043 4.387,36.526 3.836,37.002 C3.323,37.445 2.882,37.870 2.332,38.312 C1.817,38.726 1.412,39.241 0.926,39.707 C0.535,40.081 -0.027,40.768 0.031,41.574 C0.105,42.592 0.522,42.721 1.411,42.984 C3.390,43.570 6.583,44.441 8.632,44.277 C11.854,44.018 14.522,42.384 16.547,40.930 C17.656,40.133 18.491,39.152 19.436,38.199 C19.787,37.846 20.315,37.066 20.666,36.616 C21.069,36.100 20.014,35.380 19.723,35.049 C18.030,33.127 14.869,32.818 13.045,30.485 C12.336,29.578 11.556,27.958 11.310,26.593 L10.748,21.525 L10.748,21.525 ZM47.104,2.611 C47.092,2.950 47.752,3.541 47.961,3.749 C48.354,4.141 48.549,4.464 48.881,4.919 C50.501,7.145 50.869,7.676 52.085,10.074 C52.614,11.118 52.866,11.895 53.310,13.034 C54.162,15.223 54.514,17.208 54.874,19.828 C55.233,22.441 54.941,25.121 54.572,27.593 C53.944,31.804 53.380,34.377 54.606,38.585 C54.914,39.641 55.353,40.672 55.691,41.689 C56.418,43.883 57.248,45.672 59.926,45.781 C61.969,45.865 65.278,44.958 66.712,44.225 C68.672,43.224 69.959,41.721 69.179,38.942 C68.578,36.800 68.033,34.537 67.390,32.390 C67.069,31.319 66.777,30.139 66.508,29.099 C66.236,28.045 65.846,26.951 65.594,25.843 C65.366,24.842 63.996,20.424 63.632,19.443 C61.990,15.027 60.878,12.188 57.822,8.608 C57.155,7.826 56.482,7.185 55.741,6.502 C55.379,6.168 54.965,5.923 54.567,5.584 C54.108,5.193 53.784,5.103 53.291,4.771 C52.122,3.985 48.872,2.534 47.104,2.611 Z"/>
</svg>
