<svg 
 xmlns="http://www.w3.org/2000/svg"
 xmlns:xlink="http://www.w3.org/1999/xlink"
 width="20px" height="20px">
<path fill-rule="evenodd"  fill="rgb(255, 255, 255)"
 d="M9.408,17.036 L9.408,20.001 L1.171,20.001 C0.521,20.001 -0.006,19.474 -0.006,18.824 L-0.006,10.587 L2.959,10.587 C3.247,14.022 5.972,16.748 9.408,17.036 L9.408,17.036 ZM19.998,10.587 L19.998,18.824 C19.998,19.474 19.471,20.001 18.821,20.001 L10.584,20.001 L10.584,17.036 C14.020,16.748 16.746,14.022 17.033,10.587 L19.998,10.587 ZM13.657,13.715 L13.657,14.444 C13.657,14.589 13.539,14.706 13.396,14.706 L6.595,14.706 C6.451,14.706 6.334,14.589 6.334,14.444 L6.334,13.715 L13.657,13.715 ZM9.996,5.292 C11.152,5.292 12.088,6.179 12.088,7.274 C12.088,8.008 11.667,8.648 11.042,8.990 L11.041,10.741 L14.180,10.741 C14.469,10.741 14.703,10.977 14.703,11.265 L14.703,13.218 L5.289,13.218 L5.289,11.265 C5.289,10.977 5.523,10.743 5.812,10.743 L8.950,10.741 L8.950,8.990 C8.368,8.681 7.979,8.101 7.912,7.445 L7.904,7.274 C7.904,6.179 8.840,5.292 9.996,5.292 L9.996,5.292 ZM9.408,-0.003 L9.408,2.962 C5.972,3.249 3.247,5.975 2.959,9.410 L-0.006,9.410 L-0.006,1.173 C-0.006,0.523 0.521,-0.003 1.171,-0.003 L9.408,-0.003 ZM18.821,-0.003 C19.471,-0.003 19.998,0.523 19.998,1.173 L19.998,9.410 L17.033,9.410 C16.746,5.975 14.020,3.249 10.584,2.962 L10.584,-0.003 L18.821,-0.003 Z"/>
</svg>
